<svg width="314" height="222" viewBox="0 0 314 222" fill="none" xmlns="http://www.w3.org/2000/svg">
<rect x="4" y="31.252" width="215" height="165.06" rx="13.8706" transform="rotate(-8.35797 4 31.252)" fill="#5171BD"/>
<g filter="url(#filter0_d_2168_241)">
<rect x="4" y="31.252" width="215" height="165.06" rx="13.8706" transform="rotate(-8.35797 4 31.252)" fill="#F7F9FF"/>
</g>
<path d="M40.7686 175.861L223.101 149.073" stroke="#4C64CF" stroke-width="3.46765" stroke-linecap="round"/>
<path d="M50.8379 182.791L30.6759 45.558" stroke="#4C64CF" stroke-width="3.46765" stroke-linecap="round"/>
<path d="M59.5452 129.637C58.9885 125.847 61.6092 122.324 65.3988 121.767L88.7284 118.34C92.518 117.783 96.0414 120.403 96.5981 124.193L102.647 165.363L65.5938 170.807L59.5452 129.637Z" fill="url(#paint0_linear_2168_241)"/>
<path d="M100.644 56.305C100.087 52.5154 102.708 48.992 106.497 48.4353L129.827 45.0077C133.617 44.451 137.14 47.0717 137.697 50.8613L153.423 157.903L116.37 163.347L100.644 56.305Z" fill="url(#paint1_linear_2168_241)"/>
<path d="M157.468 90.015C156.911 86.2254 159.532 82.702 163.322 82.1452L186.651 78.7177C190.441 78.1609 193.964 80.7817 194.521 84.5712L204.199 150.443L167.146 155.887L157.468 90.015Z" fill="url(#paint2_linear_2168_241)"/>
<g filter="url(#filter1_d_2168_241)">
<rect x="216.666" y="130" width="95.0039" height="72.9366" rx="6.12913" transform="rotate(10 216.666 130)" fill="#F4F7FF"/>
</g>
<path d="M211.961 195.765L292.158 209.906" stroke="#4C64CF" stroke-width="2.5" stroke-linecap="round"/>
<path d="M215.22 200.073L225.863 139.712" stroke="#4C64CF" stroke-width="2.5" stroke-linecap="round"/>
<line x1="222.989" y1="189.163" x2="249.618" y2="162.87" stroke="#1100FF" stroke-width="3" stroke-linecap="round"/>
<line x1="262.331" y1="182.471" x2="250.416" y2="163.722" stroke="#1100FF" stroke-width="3" stroke-linecap="round"/>
<line x1="263.537" y1="181.705" x2="292.493" y2="161.43" stroke="#1100FF" stroke-width="3" stroke-linecap="round"/>
<defs>
<filter id="filter0_d_2168_241" x="0.867188" y="1.86719" width="237.975" height="197.825" filterUnits="userSpaceOnUse" color-interpolation-filters="sRGB">
<feFlood flood-opacity="0" result="BackgroundImageFix"/>
<feColorMatrix in="SourceAlpha" type="matrix" values="0 0 0 0 0 0 0 0 0 0 0 0 0 0 0 0 0 0 127 0" result="hardAlpha"/>
<feOffset dx="-5" dy="7"/>
<feComposite in2="hardAlpha" operator="out"/>
<feColorMatrix type="matrix" values="0 0 0 0 0.0509804 0 0 0 0 0.341176 0 0 0 0 0.784314 0 0 0 1 0"/>
<feBlend mode="normal" in2="BackgroundImageFix" result="effect1_dropShadow_2168_241"/>
<feBlend mode="normal" in="SourceGraphic" in2="effect1_dropShadow_2168_241" result="shape"/>
</filter>
<filter id="filter1_d_2168_241" x="204.971" y="130.97" width="108.286" height="90.3855" filterUnits="userSpaceOnUse" color-interpolation-filters="sRGB">
<feFlood flood-opacity="0" result="BackgroundImageFix"/>
<feColorMatrix in="SourceAlpha" type="matrix" values="0 0 0 0 0 0 0 0 0 0 0 0 0 0 0 0 0 0 127 0" result="hardAlpha"/>
<feOffset dx="4" dy="4"/>
<feComposite in2="hardAlpha" operator="out"/>
<feColorMatrix type="matrix" values="0 0 0 0 0 0 0 0 0 0.313822 0 0 0 0 0.753172 0 0 0 0.8 0"/>
<feBlend mode="normal" in2="BackgroundImageFix" result="effect1_dropShadow_2168_241"/>
<feBlend mode="normal" in="SourceGraphic" in2="effect1_dropShadow_2168_241" result="shape"/>
</filter>
<linearGradient id="paint0_linear_2168_241" x1="77.0636" y1="120.053" x2="84.1202" y2="168.085" gradientUnits="userSpaceOnUse">
<stop stop-color="#B5CFFF"/>
<stop offset="1" stop-color="#4A9EFF"/>
</linearGradient>
<linearGradient id="paint1_linear_2168_241" x1="118.162" y1="46.7215" x2="134.897" y2="160.625" gradientUnits="userSpaceOnUse">
<stop stop-color="#B5CFFF"/>
<stop offset="1" stop-color="#4A9EFF"/>
</linearGradient>
<linearGradient id="paint2_linear_2168_241" x1="174.986" y1="80.4315" x2="185.672" y2="153.165" gradientUnits="userSpaceOnUse">
<stop stop-color="#B5CFFF"/>
<stop offset="1" stop-color="#4A9EFF"/>
</linearGradient>
</defs>
</svg>
