<svg width="384" height="240" viewBox="0 0 384 240" fill="none" xmlns="http://www.w3.org/2000/svg">
<circle cx="130" cy="5" r="3.75" stroke="url(#paint0_linear_2168_242)" stroke-width="2.5"/>
<circle cx="42" cy="235" r="3.75" stroke="url(#paint1_linear_2168_242)" stroke-width="2.5"/>
<circle cx="300" cy="112" r="4" fill="url(#paint2_linear_2168_242)"/>
<rect x="29" y="18" width="128" height="32" rx="16" fill="#84A6FF"/>
<rect y="172" width="147" height="36" rx="18" fill="#84A6FF"/>
<rect x="212" y="18" width="54" height="32" rx="16" fill="#84A6FF"/>
<rect x="352" y="135" width="32" height="32" rx="16" fill="#84A6FF"/>
<rect x="224" y="72" width="143" height="32" rx="16" fill="#84A6FF"/>
<path d="M288.213 103.667C279.468 103.667 272.38 110.755 272.38 119.5C272.38 128.244 279.468 135.334 288.213 135.334H239.833C231.089 135.334 224 128.244 224 119.5C224 110.756 231.089 103.667 239.833 103.667H288.213ZM338.69 135.287C338.422 135.307 338.152 135.321 337.881 135.328C338.017 135.324 338.152 135.319 338.287 135.312L338.69 135.287ZM343.988 133.934C343.871 133.987 343.754 134.04 343.636 134.09L343.278 134.235C343.398 134.188 343.517 134.139 343.636 134.089L343.988 133.934ZM349.192 130.146C349.107 130.24 349.021 130.333 348.934 130.425L348.668 130.696C348.758 130.606 348.846 130.515 348.934 130.424L349.192 130.146ZM349.929 129.275C349.85 129.375 349.771 129.474 349.69 129.572L349.444 129.862C349.528 129.766 349.61 129.669 349.69 129.571L349.929 129.275Z" fill="#84A6FF"/>
<rect x="224" y="135.333" width="106.435" height="31.6667" rx="15.8333" fill="#84A6FF"/>
<defs>
<linearGradient id="paint0_linear_2168_242" x1="130" y1="0" x2="130" y2="10" gradientUnits="userSpaceOnUse">
<stop stop-color="white"/>
<stop offset="1" stop-color="#BCCCFF"/>
</linearGradient>
<linearGradient id="paint1_linear_2168_242" x1="42" y1="230" x2="42" y2="240" gradientUnits="userSpaceOnUse">
<stop stop-color="white"/>
<stop offset="1" stop-color="#BCCCFF"/>
</linearGradient>
<linearGradient id="paint2_linear_2168_242" x1="300" y1="108" x2="300" y2="116" gradientUnits="userSpaceOnUse">
<stop stop-color="white"/>
<stop offset="1" stop-color="#BCCCFF"/>
</linearGradient>
</defs>
</svg>
