<svg width="384" height="270" viewBox="0 0 384 270" fill="none" xmlns="http://www.w3.org/2000/svg">
<circle cx="130" cy="5" r="3.75" stroke="url(#paint0_linear_2064_869)" stroke-width="2.5"/>
<circle cx="42" cy="235" r="3.75" stroke="url(#paint1_linear_2064_869)" stroke-width="2.5"/>
<circle cx="300" cy="112" r="4" fill="url(#paint2_linear_2064_869)"/>
<rect x="29" y="18" width="128" height="32" rx="16" fill="#84A6FF"/>
<rect y="172" width="147" height="36" rx="18" fill="#84A6FF"/>
<rect x="212" y="18" width="54" height="32" rx="16" fill="#84A6FF"/>
<rect x="352" y="135" width="32" height="32" rx="16" fill="#84A6FF"/>
<rect x="224" y="72" width="143" height="32" rx="16" fill="#84A6FF"/>
<path d="M288.213 103.667C279.468 103.667 272.38 110.755 272.38 119.5C272.38 128.244 279.468 135.334 288.213 135.334H239.833C231.089 135.334 224 128.244 224 119.5C224 110.756 231.089 103.667 239.833 103.667H288.213ZM338.69 135.287C338.422 135.307 338.152 135.321 337.881 135.328C338.017 135.324 338.152 135.319 338.287 135.312L338.69 135.287ZM343.988 133.934C343.871 133.987 343.754 134.04 343.636 134.09L343.278 134.235C343.398 134.188 343.517 134.139 343.636 134.089L343.988 133.934ZM349.192 130.146C349.107 130.24 349.021 130.333 348.934 130.425L348.668 130.696C348.758 130.606 348.846 130.515 348.934 130.424L349.192 130.146ZM349.929 129.275C349.85 129.375 349.771 129.474 349.69 129.572L349.444 129.862C349.528 129.766 349.61 129.669 349.69 129.571L349.929 129.275Z" fill="#84A6FF"/>
<rect x="224" y="135.333" width="106.435" height="31.6667" rx="15.8333" fill="#84A6FF"/>
<rect x="29" y="63.252" width="215" height="165.06" rx="13.8706" transform="rotate(-8.35797 29 63.252)" fill="#5171BD"/>
<g filter="url(#filter0_d_2064_869)">
<rect x="29" y="63.252" width="215" height="165.06" rx="13.8706" transform="rotate(-8.35797 29 63.252)" fill="#F7F9FF"/>
</g>
<path d="M65.7686 207.861L248.101 181.073" stroke="#4C64CF" stroke-width="3.46765" stroke-linecap="round"/>
<path d="M75.8379 214.791L55.6759 77.558" stroke="#4C64CF" stroke-width="3.46765" stroke-linecap="round"/>
<path d="M84.5452 161.637C83.9885 157.847 86.6092 154.324 90.3988 153.767L113.728 150.34C117.518 149.783 121.041 152.403 121.598 156.193L127.647 197.363L90.5938 202.807L84.5452 161.637Z" fill="url(#paint3_linear_2064_869)"/>
<path d="M125.644 88.305C125.087 84.5154 127.708 80.992 131.497 80.4353L154.827 77.0077C158.617 76.451 162.14 79.0717 162.697 82.8613L178.423 189.903L141.37 195.347L125.644 88.305Z" fill="url(#paint4_linear_2064_869)"/>
<path d="M182.468 122.015C181.911 118.225 184.532 114.702 188.322 114.145L211.651 110.718C215.441 110.161 218.964 112.782 219.521 116.571L229.199 182.443L192.146 187.887L182.468 122.015Z" fill="url(#paint5_linear_2064_869)"/>
<g filter="url(#filter1_d_2064_869)">
<rect x="241.666" y="162" width="95.0039" height="72.9366" rx="6.12913" transform="rotate(10 241.666 162)" fill="#F4F7FF"/>
</g>
<path d="M236.961 227.765L317.158 241.906" stroke="#4C64CF" stroke-width="2.5" stroke-linecap="round"/>
<path d="M240.22 232.073L250.863 171.712" stroke="#4C64CF" stroke-width="2.5" stroke-linecap="round"/>
<line x1="247.989" y1="221.163" x2="274.618" y2="194.87" stroke="#1100FF" stroke-width="3" stroke-linecap="round"/>
<line x1="287.331" y1="214.471" x2="275.416" y2="195.722" stroke="#1100FF" stroke-width="3" stroke-linecap="round"/>
<line x1="288.537" y1="213.705" x2="317.493" y2="193.43" stroke="#1100FF" stroke-width="3" stroke-linecap="round"/>
<path d="M335.445 257C336.092 257 336.624 257.492 336.688 258.122L336.695 258.25V262.196H340.643L340.771 262.203C341.401 262.267 341.892 262.799 341.893 263.446C341.893 264.093 341.401 264.625 340.771 264.689L340.643 264.696H336.695V268.643C336.695 269.333 336.136 269.892 335.445 269.893C334.755 269.893 334.195 269.333 334.195 268.643V264.696H330.25C329.56 264.696 329 264.137 329 263.446C329 262.756 329.56 262.196 330.25 262.196H334.195V258.25L334.202 258.122C334.266 257.492 334.798 257 335.445 257Z" fill="url(#paint6_linear_2064_869)"/>
<path d="M18.4453 120C19.0922 120 19.6242 120.492 19.6885 121.122L19.6953 121.25V125.196H23.6426L23.7705 125.203C24.4006 125.267 24.8924 125.799 24.8926 126.446C24.8926 127.093 24.4007 127.625 23.7705 127.689L23.6426 127.696H19.6953V131.643C19.6953 132.333 19.1356 132.892 18.4453 132.893C17.755 132.893 17.1953 132.333 17.1953 131.643V127.696H13.25C12.5597 127.696 12 127.137 12 126.446C12.0002 125.756 12.5598 125.196 13.25 125.196H17.1953V121.25L17.2021 121.122C17.2665 120.492 17.7983 120 18.4453 120Z" fill="url(#paint7_linear_2064_869)"/>
<defs>
<filter id="filter0_d_2064_869" x="25.8672" y="33.8672" width="237.975" height="197.825" filterUnits="userSpaceOnUse" color-interpolation-filters="sRGB">
<feFlood flood-opacity="0" result="BackgroundImageFix"/>
<feColorMatrix in="SourceAlpha" type="matrix" values="0 0 0 0 0 0 0 0 0 0 0 0 0 0 0 0 0 0 127 0" result="hardAlpha"/>
<feOffset dx="-5" dy="7"/>
<feComposite in2="hardAlpha" operator="out"/>
<feColorMatrix type="matrix" values="0 0 0 0 0.0509804 0 0 0 0 0.341176 0 0 0 0 0.784314 0 0 0 1 0"/>
<feBlend mode="normal" in2="BackgroundImageFix" result="effect1_dropShadow_2064_869"/>
<feBlend mode="normal" in="SourceGraphic" in2="effect1_dropShadow_2064_869" result="shape"/>
</filter>
<filter id="filter1_d_2064_869" x="229.971" y="162.97" width="108.286" height="90.3855" filterUnits="userSpaceOnUse" color-interpolation-filters="sRGB">
<feFlood flood-opacity="0" result="BackgroundImageFix"/>
<feColorMatrix in="SourceAlpha" type="matrix" values="0 0 0 0 0 0 0 0 0 0 0 0 0 0 0 0 0 0 127 0" result="hardAlpha"/>
<feOffset dx="4" dy="4"/>
<feComposite in2="hardAlpha" operator="out"/>
<feColorMatrix type="matrix" values="0 0 0 0 0 0 0 0 0 0.313822 0 0 0 0 0.753172 0 0 0 0.8 0"/>
<feBlend mode="normal" in2="BackgroundImageFix" result="effect1_dropShadow_2064_869"/>
<feBlend mode="normal" in="SourceGraphic" in2="effect1_dropShadow_2064_869" result="shape"/>
</filter>
<linearGradient id="paint0_linear_2064_869" x1="130" y1="0" x2="130" y2="10" gradientUnits="userSpaceOnUse">
<stop stop-color="white"/>
<stop offset="1" stop-color="#BCCCFF"/>
</linearGradient>
<linearGradient id="paint1_linear_2064_869" x1="42" y1="230" x2="42" y2="240" gradientUnits="userSpaceOnUse">
<stop stop-color="white"/>
<stop offset="1" stop-color="#BCCCFF"/>
</linearGradient>
<linearGradient id="paint2_linear_2064_869" x1="300" y1="108" x2="300" y2="116" gradientUnits="userSpaceOnUse">
<stop stop-color="white"/>
<stop offset="1" stop-color="#BCCCFF"/>
</linearGradient>
<linearGradient id="paint3_linear_2064_869" x1="102.064" y1="152.053" x2="109.12" y2="200.085" gradientUnits="userSpaceOnUse">
<stop stop-color="#B5CFFF"/>
<stop offset="1" stop-color="#4A9EFF"/>
</linearGradient>
<linearGradient id="paint4_linear_2064_869" x1="143.162" y1="78.7215" x2="159.897" y2="192.625" gradientUnits="userSpaceOnUse">
<stop stop-color="#B5CFFF"/>
<stop offset="1" stop-color="#4A9EFF"/>
</linearGradient>
<linearGradient id="paint5_linear_2064_869" x1="199.986" y1="112.431" x2="210.672" y2="185.165" gradientUnits="userSpaceOnUse">
<stop stop-color="#B5CFFF"/>
<stop offset="1" stop-color="#4A9EFF"/>
</linearGradient>
<linearGradient id="paint6_linear_2064_869" x1="335.446" y1="257" x2="335.446" y2="269.893" gradientUnits="userSpaceOnUse">
<stop stop-color="white"/>
<stop offset="1" stop-color="#BCCCFF"/>
</linearGradient>
<linearGradient id="paint7_linear_2064_869" x1="18.4463" y1="120" x2="18.4463" y2="132.893" gradientUnits="userSpaceOnUse">
<stop stop-color="white"/>
<stop offset="1" stop-color="#BCCCFF"/>
</linearGradient>
</defs>
</svg>
