<svg width="402" height="258" viewBox="0 0 402 258" fill="none" xmlns="http://www.w3.org/2000/svg">
<circle cx="120" cy="20" r="3.75" stroke="url(#paint0_linear_2114_219)" stroke-width="2.5"/>
<circle cx="322.5" cy="248.5" r="7.75" stroke="url(#paint1_linear_2114_219)" stroke-width="3.5"/>
<circle cx="32" cy="218" r="3.75" stroke="url(#paint2_linear_2114_219)" stroke-width="2.5"/>
<circle cx="362" cy="75" r="4" fill="url(#paint3_linear_2114_219)"/>
<circle cx="124" cy="227" r="4" fill="url(#paint4_linear_2114_219)"/>
<path d="M395.499 147C396.152 147 396.689 147.496 396.753 148.132L396.76 148.26V152.239H400.74L400.868 152.246C401.504 152.311 402 152.847 402 153.5C402 154.152 401.504 154.689 400.868 154.754L400.74 154.761H396.76V158.739C396.76 159.435 396.195 160 395.499 160C394.803 160 394.238 159.435 394.238 158.739V154.761H390.261C389.565 154.761 389 154.196 389 153.5C389 152.804 389.565 152.239 390.261 152.239H394.238V148.26L394.245 148.132C394.309 147.496 394.846 147 395.499 147Z" fill="url(#paint5_linear_2114_219)"/>
<path d="M6.44531 79C7.09224 79.0001 7.62418 79.4921 7.68848 80.1221L7.69531 80.25V84.1963H11.6426L11.7705 84.2031C12.4006 84.2673 12.8924 84.7994 12.8926 85.4463C12.8926 86.0934 12.4007 86.6253 11.7705 86.6895L11.6426 86.6963H7.69531V90.6426C7.69531 91.3329 7.1356 91.8925 6.44531 91.8926C5.75496 91.8926 5.19531 91.3329 5.19531 90.6426V86.6963H1.25C0.559661 86.6963 0 86.1366 0 85.4463C0.000204561 84.7561 0.559787 84.1963 1.25 84.1963H5.19531V80.25L5.20215 80.1221C5.26646 79.4921 5.79833 79 6.44531 79Z" fill="url(#paint6_linear_2114_219)"/>
<rect x="169.361" y="197.902" width="67.7463" height="54.6341" rx="3.27805" fill="#739BEA"/>
<rect x="144.229" y="250.351" width="115.824" height="7.64878" rx="2.18537" fill="#0458E0"/>
<rect x="59" y="34" width="288.468" height="178.107" rx="3.27805" fill="#0052D5"/>
<circle cx="203.761" cy="199.707" r="3.82439" fill="#66A0FF"/>
<rect x="71" y="44" width="264.429" height="143.141" rx="3.27805" fill="#B9D4FF"/>
<path d="M71 47.2781C71 45.4676 72.4676 44 74.278 44H332.151C333.962 44 335.429 45.4676 335.429 47.278V59.2976H71V47.2781Z" fill="#5294FF"/>
<circle cx="83.0193" cy="51.6489" r="3.27805" fill="#79ACFF"/>
<circle cx="93.946" cy="51.6489" r="3.27805" fill="#79ACFF"/>
<circle cx="104.873" cy="51.6489" r="3.27805" fill="#79ACFF"/>
<path d="M71 59.2976H124.541V187.142H74.278C72.4676 187.142 71 185.674 71 183.863V59.2976Z" fill="#D4E5FF"/>
<circle cx="81.9272" cy="72.4096" r="6.5561" fill="#BDD7FF"/>
<rect x="91.7617" y="66.9463" width="28.4098" height="2.18537" rx="1.09268" fill="#BDD7FF"/>
<rect x="91.7617" y="71.3171" width="28.4098" height="2.18537" rx="1.09268" fill="#BDD7FF"/>
<rect x="91.7617" y="75.6877" width="28.4098" height="2.18537" rx="1.09268" fill="#BDD7FF"/>
<rect x="71" y="108.468" width="53.5415" height="15.2976" fill="#E6F0FF"/>
<circle cx="79.7418" cy="99.7267" r="4.37073" fill="#BAD5FF"/>
<rect x="88.4834" y="96.9949" width="31.6878" height="5.46341" fill="#BAD5FF"/>
<circle cx="79.7418" cy="116.117" r="4.37073" fill="#8FBBFF"/>
<rect x="88.4834" y="113.385" width="31.6878" height="5.46341" fill="#8FBBFF"/>
<circle cx="79.7418" cy="132.507" r="4.37073" fill="#BAD5FF"/>
<rect x="88.4834" y="129.775" width="31.6878" height="5.46341" fill="#BAD5FF"/>
<circle cx="79.7418" cy="148.897" r="4.37073" fill="#BAD5FF"/>
<rect x="88.4834" y="146.166" width="31.6878" height="5.46341" fill="#BAD5FF"/>
<rect x="131.098" y="110.654" width="140.956" height="67.7463" fill="#E6F0FF"/>
<rect x="209.77" y="68.0396" width="62.2829" height="38.2439" fill="#E6F0FF"/>
<rect x="209.77" y="68.0396" width="62.2829" height="6.5561" fill="#D6E6FF"/>
<rect x="270.256" y="81.1519" width="1.79662" height="7.64878" fill="#9EC3FF"/>
<rect x="213.363" y="78.9663" width="52.4488" height="4.37073" fill="#D6E6FF"/>
<rect x="213.363" y="88.2542" width="52.4488" height="4.37073" fill="#D6E6FF"/>
<rect x="213.363" y="97.542" width="52.4488" height="4.37073" fill="#D6E6FF"/>
<rect x="131.098" y="68.0396" width="74.3024" height="38.2439" fill="#E6F0FF"/>
<path d="M168.249 95.9029C151.64 80.6054 136.561 88.072 131.098 95.9029V106.283H205.4V83.8835C196.294 90.4396 176.116 102.022 168.249 95.9029Z" fill="#D6E6FF"/>
<path d="M278.61 59.2976H335.43V183.863C335.43 185.674 333.962 187.142 332.152 187.142H278.61V59.2976Z" fill="#E6F0FF"/>
<rect x="332.698" y="111.746" width="2.73171" height="15.2976" fill="#70A7FF"/>
<mask id="path-42-inside-1_2114_219" fill="white">
<path d="M278.61 59.2976H335.43V95.3561H278.61V59.2976Z"/>
</mask>
<path d="M335.43 95.3561V95.0283H278.61V95.3561V95.6839H335.43V95.3561Z" fill="#A4C9FF" mask="url(#path-42-inside-1_2114_219)"/>
<rect x="281.888" y="63.6685" width="38.2439" height="5.46341" fill="#CDE1FF"/>
<rect x="281.888" y="73.5027" width="49.1707" height="5.46341" fill="#CDE1FF"/>
<rect x="281.888" y="80.3865" width="49.1707" height="5.46341" fill="#CDE1FF"/>
<rect x="313.575" y="87.2705" width="17.4829" height="5.46341" fill="#CDE1FF"/>
<line x1="281.888" y1="71.1532" x2="331.058" y2="71.1532" stroke="#CDE1FF" stroke-width="0.327805"/>
<mask id="path-49-inside-2_2114_219" fill="white">
<path d="M278.61 95.356H335.43V131.414H278.61V95.356Z"/>
</mask>
<path d="M335.43 131.414V131.087H278.61V131.414V131.742H335.43V131.414Z" fill="#A4C9FF" mask="url(#path-49-inside-2_2114_219)"/>
<rect x="281.888" y="99.7266" width="38.2439" height="5.46341" fill="#CDE1FF"/>
<rect x="281.888" y="109.561" width="49.1707" height="5.46341" fill="#CDE1FF"/>
<rect x="281.888" y="116.445" width="49.1707" height="5.46341" fill="#CDE1FF"/>
<rect x="313.575" y="123.329" width="17.4829" height="5.46341" fill="#CDE1FF"/>
<line x1="281.888" y1="107.211" x2="331.058" y2="107.211" stroke="#CDE1FF" stroke-width="0.327805"/>
<mask id="path-56-inside-3_2114_219" fill="white">
<path d="M278.61 131.415H335.43V167.473H278.61V131.415Z"/>
</mask>
<path d="M335.43 167.473V167.145H278.61V167.473V167.801H335.43V167.473Z" fill="#A4C9FF" mask="url(#path-56-inside-3_2114_219)"/>
<rect x="281.888" y="135.785" width="38.2439" height="5.46341" fill="#CDE1FF"/>
<rect x="281.888" y="145.619" width="49.1707" height="5.46341" fill="#CDE1FF"/>
<rect x="281.888" y="152.503" width="49.1707" height="5.46341" fill="#CDE1FF"/>
<rect x="313.575" y="159.387" width="17.4829" height="5.46341" fill="#CDE1FF"/>
<line x1="281.888" y1="143.27" x2="331.058" y2="143.27" stroke="#CDE1FF" stroke-width="0.327805"/>
<rect x="281.888" y="171.844" width="38.2439" height="5.46341" fill="#CDE1FF"/>
<rect x="281.888" y="181.678" width="49.1707" height="5.46341" fill="#CDE1FF"/>
<line x1="281.888" y1="179.329" x2="331.058" y2="179.329" stroke="#CDE1FF" stroke-width="0.327805"/>
<circle cx="45.5" cy="154.5" r="19.5" fill="#8EA3FF"/>
<path d="M48.7173 162.213V164.141H47.7594V165.105H43.9278V164.141H42.9699V162.213H48.7173ZM55.4225 159.32V160.284H54.4646V161.249H37.2225V160.284H36.2646V159.32H37.2225V158.356H38.1804V156.428H39.1383V150.643H40.0962V148.715H41.0541V147.751H42.012V146.787H43.9278V145.823H44.8857V143.895H46.8015V145.823H47.7594V146.787H49.6752V147.751H50.6331V148.715H51.591V150.643H52.5489V156.428H53.5068V158.356H54.4646V159.32H55.4225Z" fill="white"/>
<circle cx="298.5" cy="19.5" r="19.5" fill="#E5EAFF"/>
<path fill-rule="evenodd" clip-rule="evenodd" d="M298.5 28.8764L299.198 29.5794C299.106 29.6723 298.997 29.746 298.878 29.7962C298.758 29.8465 298.629 29.8724 298.5 29.8724C298.37 29.8724 298.241 29.8465 298.122 29.7962C298.002 29.746 297.893 29.6723 297.802 29.5794L297.796 29.5724L297.779 29.5555L297.718 29.4928C297.37 29.1311 297.029 28.764 296.693 28.3915C295.85 27.4577 295.043 26.4918 294.273 25.4959C293.394 24.3508 292.495 23.0564 291.812 21.7778C291.144 20.5242 290.617 19.166 290.617 17.9234C290.617 13.4037 294.157 9.95752 298.5 9.95752C302.844 9.95752 306.383 13.4037 306.383 17.9234C306.383 19.166 305.856 20.5242 305.188 21.7768C304.505 23.0573 303.607 24.3508 302.727 25.4959C301.65 26.889 300.5 28.2232 299.283 29.4928L299.221 29.5555L299.205 29.5724L299.199 29.5784L298.5 28.8764ZM298.5 20.9106C299.284 20.9106 300.036 20.5958 300.59 20.0356C301.145 19.4754 301.456 18.7156 301.456 17.9234C301.456 17.1311 301.145 16.3713 300.59 15.8111C300.036 15.2509 299.284 14.9362 298.5 14.9362C297.716 14.9362 296.964 15.2509 296.41 15.8111C295.855 16.3713 295.544 17.1311 295.544 17.9234C295.544 18.7156 295.855 19.4754 296.41 20.0356C296.964 20.5958 297.716 20.9106 298.5 20.9106Z" fill="#0061FD"/>
<defs>
<linearGradient id="paint0_linear_2114_219" x1="120" y1="15" x2="120" y2="25" gradientUnits="userSpaceOnUse">
<stop stop-color="white"/>
<stop offset="1" stop-color="#BCCCFF"/>
</linearGradient>
<linearGradient id="paint1_linear_2114_219" x1="322.5" y1="239" x2="322.5" y2="258" gradientUnits="userSpaceOnUse">
<stop stop-color="white"/>
<stop offset="1" stop-color="#BCCCFF"/>
</linearGradient>
<linearGradient id="paint2_linear_2114_219" x1="32" y1="213" x2="32" y2="223" gradientUnits="userSpaceOnUse">
<stop stop-color="white"/>
<stop offset="1" stop-color="#BCCCFF"/>
</linearGradient>
<linearGradient id="paint3_linear_2114_219" x1="362" y1="71" x2="362" y2="79" gradientUnits="userSpaceOnUse">
<stop stop-color="white"/>
<stop offset="1" stop-color="#BCCCFF"/>
</linearGradient>
<linearGradient id="paint4_linear_2114_219" x1="124" y1="223" x2="124" y2="231" gradientUnits="userSpaceOnUse">
<stop stop-color="white"/>
<stop offset="1" stop-color="#BCCCFF"/>
</linearGradient>
<linearGradient id="paint5_linear_2114_219" x1="395.5" y1="147" x2="395.5" y2="160" gradientUnits="userSpaceOnUse">
<stop stop-color="white"/>
<stop offset="1" stop-color="#BCCCFF"/>
</linearGradient>
<linearGradient id="paint6_linear_2114_219" x1="6.44629" y1="79" x2="6.44629" y2="91.8926" gradientUnits="userSpaceOnUse">
<stop stop-color="white"/>
<stop offset="1" stop-color="#BCCCFF"/>
</linearGradient>
</defs>
</svg>
