<svg width="378" height="311" viewBox="0 0 378 311" fill="none" xmlns="http://www.w3.org/2000/svg">
<path fill-rule="evenodd" clip-rule="evenodd" d="M283.968 307.379C284.513 307.379 285.967 306.843 287.494 303.79C288.219 302.339 288.828 300.541 289.253 298.488H278.683C279.107 300.541 279.717 302.339 280.442 303.79C281.969 306.843 283.423 307.379 283.968 307.379ZM278.168 294.932C277.997 292.96 277.997 290.976 278.168 289.004H289.767C289.938 290.976 289.938 292.959 289.767 294.932H278.168ZM292.876 298.488C292.345 301.39 291.47 303.96 290.348 305.999C293.688 304.474 296.377 301.812 297.935 298.488H292.876ZM299.095 294.932H293.333C293.488 292.959 293.488 290.977 293.333 289.004H299.092C299.476 290.961 299.476 292.974 299.092 294.932H299.095ZM274.6 294.932H268.841C268.457 292.974 268.457 290.961 268.841 289.004H274.602C274.448 290.977 274.448 292.959 274.602 294.932H274.6ZM270 298.488H275.06C275.591 301.39 276.466 303.96 277.588 305.999C274.248 304.474 271.559 301.812 270 298.488ZM278.683 285.448H289.253C288.828 283.394 288.219 281.597 287.494 280.146C285.967 277.092 284.513 276.556 283.968 276.556C283.423 276.556 281.969 277.092 280.442 280.146C279.717 281.597 279.107 283.394 278.683 285.448ZM292.876 285.448H297.935C296.377 282.124 293.688 279.461 290.348 277.936C291.47 279.975 292.345 282.546 292.876 285.448ZM277.59 277.936C276.468 279.975 275.594 282.546 275.062 285.448H270C271.559 282.124 274.25 279.461 277.59 277.936ZM283.968 273C288.998 273 293.823 274.998 297.38 278.556C300.937 282.113 302.936 286.937 302.936 291.968C302.936 296.998 300.937 301.823 297.38 305.38C293.823 308.937 288.998 310.936 283.968 310.936C278.937 310.936 274.113 308.937 270.556 305.38C266.998 301.823 265 296.998 265 291.968C265 286.937 266.998 282.113 270.556 278.556C274.113 274.998 278.937 273 283.968 273Z" fill="url(#paint0_linear_2075_217)"/>
<circle cx="79.5334" cy="6.53338" r="6.53338" fill="url(#paint1_linear_2075_217)"/>
<circle cx="3.79358" cy="176.794" r="3.79358" fill="url(#paint2_linear_2075_217)"/>
<path d="M347.342 189.082C345.59 188.031 343.497 185.916 342.676 181.685L346.213 180.182C347.363 186.116 351.885 186.756 353.771 186.138C353.901 186.089 354.028 186.047 354.157 186C350.773 183.373 350.024 178.578 349.975 178.242C349.223 173.163 351.358 168.164 354.846 166.856C358.334 165.548 361.65 168.498 362.411 173.567C362.482 174.003 363.222 178.943 361.245 183.45C362.495 183.19 363.728 182.618 364.844 181.778C365.961 180.939 366.93 179.855 367.677 178.614C368.314 177.567 368.774 176.426 369.029 175.26C369.285 174.094 369.33 172.927 369.162 171.829C368.813 169.531 367.521 167.608 365.537 166.418L367.688 162.831C370.431 164.476 372.22 167.189 372.727 170.47C373.226 173.701 372.464 177.208 370.578 180.353C369.197 182.65 367.295 184.562 365.114 185.847C362.933 187.131 360.573 187.73 358.332 187.567C357.159 188.626 355.769 189.422 354.178 189.946C352.615 190.459 350.101 190.558 347.729 189.299C347.601 189.233 347.472 189.161 347.342 189.082ZM356.668 170.765C356.264 170.523 355.835 170.45 355.407 170.61C354.155 171.08 353.093 173.875 353.543 176.915L353.544 176.93C353.551 176.972 354.284 181.679 357.576 183.216L357.58 183.21C359.624 179.833 358.861 175.01 358.853 174.961L358.847 174.927C358.58 173.121 357.704 171.386 356.668 170.765Z" fill="url(#paint3_linear_2075_217)"/>
<path d="M106.842 244.639C106.842 247.91 104.19 250.562 100.918 250.562H64.9245C61.653 250.562 59.001 247.91 59.001 244.639V171.548C59.001 168.277 61.653 165.625 64.9245 165.625H100.918C104.19 165.625 106.842 168.277 106.842 171.548V244.639Z" fill="#4488FF"/>
<path d="M106.842 245.077C106.842 248.348 104.19 251 100.918 251H72.3859C69.1144 251 66.4624 248.348 66.4624 245.077V171.986C66.4624 168.714 69.1144 166.062 72.3859 166.062H100.918C104.19 166.062 106.842 168.714 106.842 171.986V245.077Z" fill="#679FFF"/>
<path d="M84.457 201.943C84.457 199.458 86.7248 197.591 89.1637 198.068L171.799 214.223V236.989L87.6483 220.538C85.7946 220.176 84.457 218.551 84.457 216.663V201.943Z" fill="#80AFFF"/>
<path d="M181.189 154.682C183.37 154.682 185.138 156.45 185.138 158.631V225.609H162.315V158.631C162.315 156.45 164.083 154.682 166.264 154.682H181.189Z" fill="#80AFFF"/>
<ellipse cx="178.115" cy="225.387" rx="15.8006" ry="18.6075" fill="#4488FF"/>
<ellipse cx="171.531" cy="225.387" rx="15.8006" ry="18.6075" fill="#679FFF"/>
<path d="M204.891 146.579C204.891 150.402 204.079 154.188 202.502 157.721C200.925 161.253 198.613 164.463 195.699 167.166C192.785 169.87 189.325 172.014 185.518 173.478C181.711 174.941 177.63 175.694 173.509 175.694C169.388 175.694 165.307 174.941 161.499 173.478C157.692 172.014 154.233 169.87 151.318 167.166C148.404 164.463 146.093 161.253 144.516 157.721C142.939 154.188 142.127 150.402 142.127 146.579L173.509 146.579H204.891Z" fill="#679FFF"/>
<path d="M253.678 132.171C253.788 129.689 252.335 127.404 250.04 126.449L92.3101 60.8846C88.5093 59.3046 84.2888 61.9846 84.1056 66.0944L81.8577 116.527C81.7471 119.009 83.2001 121.294 85.4958 122.249L243.225 187.814C247.026 189.394 251.247 186.714 251.43 182.604L253.678 132.171Z" fill="#80AFFF"/>
<path d="M141.152 52.9008C137.896 55.8765 138.918 61.2398 143.041 62.8093L302.236 123.418C303.974 124.079 305.921 123.886 307.496 122.897L325.044 111.867C327.847 110.105 327.367 105.882 324.24 104.794L153.848 45.5071C151.793 44.7921 149.512 45.2612 147.906 46.729L141.152 52.9008Z" fill="#114FB9"/>
<path d="M305.399 117.457C305.466 113.583 301.854 110.713 298.085 111.647L248.243 123.987C245.619 124.636 243.754 126.973 243.707 129.67L242.78 183.011C242.712 186.885 246.324 189.754 250.093 188.821L299.935 176.481C302.559 175.831 304.424 173.494 304.471 170.797L305.399 117.457Z" fill="#679FFF"/>
<path d="M293.071 132.029C293.111 129.759 290.994 128.077 288.786 128.624L259.579 135.855C258.041 136.236 256.948 137.605 256.92 139.186L256.377 170.443C256.337 172.713 258.454 174.395 260.663 173.848L289.87 166.617C291.407 166.236 292.5 164.867 292.528 163.286L293.071 132.029Z" fill="url(#paint4_linear_2075_217)"/>
<path d="M260.662 112.194C263.673 113.382 264.055 117.488 261.315 119.211L245.356 129.246C243.782 130.236 241.833 130.43 240.095 129.768L88.0059 71.8398C85.7089 70.965 84.1905 68.7626 84.1904 66.3047V55.293H109.914V52.7422L260.662 112.194Z" fill="#4D8EFF"/>
<path d="M149.275 38.0882C149.509 38.0308 149.755 38.0461 149.98 38.1322L326.282 105.526C327.384 105.948 327.26 107.546 326.105 107.792L255.319 122.864C255.093 122.912 254.857 122.893 254.641 122.808L84.4281 56.2187C83.351 55.7974 83.4541 54.2405 84.5774 53.9649L149.275 38.0882Z" fill="#2E6BD1"/>
<defs>
<linearGradient id="paint0_linear_2075_217" x1="269.598" y1="273" x2="298.338" y2="310.936" gradientUnits="userSpaceOnUse">
<stop offset="0.127111" stop-color="#C5DBFF"/>
<stop offset="0.982901" stop-color="#66A6FF"/>
</linearGradient>
<linearGradient id="paint1_linear_2075_217" x1="79.5334" y1="0" x2="79.5334" y2="13.0668" gradientUnits="userSpaceOnUse">
<stop stop-color="white"/>
<stop offset="1" stop-color="#9BC0FF"/>
</linearGradient>
<linearGradient id="paint2_linear_2075_217" x1="3.79358" y1="173" x2="3.79358" y2="180.587" gradientUnits="userSpaceOnUse">
<stop stop-color="white"/>
<stop offset="1" stop-color="#9BC0FF"/>
</linearGradient>
<linearGradient id="paint3_linear_2075_217" x1="339.381" y1="188.911" x2="376.959" y2="168.192" gradientUnits="userSpaceOnUse">
<stop offset="0.317336" stop-color="#9FCDFF"/>
<stop offset="1" stop-color="#4BA8FF"/>
</linearGradient>
<linearGradient id="paint4_linear_2075_217" x1="292.976" y1="127.534" x2="259.363" y2="176.906" gradientUnits="userSpaceOnUse">
<stop stop-color="#5C98FF"/>
<stop offset="1" stop-color="#0A65FF"/>
</linearGradient>
</defs>
</svg>
