<svg width="402" height="243" viewBox="0 0 402 243" fill="none" xmlns="http://www.w3.org/2000/svg">
<circle cx="120" cy="5" r="3.75" stroke="url(#paint0_linear_2114_219)" stroke-width="2.5"/>
<circle cx="322.5" cy="233.5" r="7.75" stroke="url(#paint1_linear_2114_219)" stroke-width="3.5"/>
<circle cx="32" cy="203" r="3.75" stroke="url(#paint2_linear_2114_219)" stroke-width="2.5"/>
<circle cx="362" cy="60" r="4" fill="url(#paint3_linear_2114_219)"/>
<circle cx="124" cy="212" r="4" fill="url(#paint4_linear_2114_219)"/>
<path d="M395.499 132C396.152 132 396.689 132.496 396.753 133.132L396.76 133.26V137.239H400.74L400.868 137.246C401.504 137.311 402 137.847 402 138.5C402 139.152 401.504 139.689 400.868 139.754L400.74 139.761H396.76V143.739C396.76 144.435 396.195 145 395.499 145C394.803 145 394.238 144.435 394.238 143.739V139.761H390.261C389.565 139.761 389 139.196 389 138.5C389 137.804 389.565 137.239 390.261 137.239H394.238V133.26L394.245 133.132C394.309 132.496 394.846 132 395.499 132Z" fill="url(#paint5_linear_2114_219)"/>
<path d="M6.44531 64C7.09224 64.0001 7.62418 64.4921 7.68848 65.1221L7.69531 65.25V69.1963H11.6426L11.7705 69.2031C12.4006 69.2673 12.8924 69.7994 12.8926 70.4463C12.8926 71.0934 12.4007 71.6253 11.7705 71.6895L11.6426 71.6963H7.69531V75.6426C7.69531 76.3329 7.1356 76.8925 6.44531 76.8926C5.75496 76.8926 5.19531 76.3329 5.19531 75.6426V71.6963H1.25C0.559661 71.6963 0 71.1366 0 70.4463C0.000204561 69.7561 0.559787 69.1963 1.25 69.1963H5.19531V65.25L5.20215 65.1221C5.26646 64.4921 5.79833 64 6.44531 64Z" fill="url(#paint6_linear_2114_219)"/>
<rect x="169.361" y="182.902" width="67.7463" height="54.6341" rx="3.27805" fill="#739BEA"/>
<rect x="144.229" y="235.351" width="115.824" height="7.64878" rx="2.18537" fill="#0458E0"/>
<rect x="59" y="19" width="288.468" height="178.107" rx="3.27805" fill="#0052D5"/>
<circle cx="203.761" cy="184.707" r="3.82439" fill="#66A0FF"/>
<rect x="71" y="29" width="264.429" height="143.141" rx="3.27805" fill="#B9D4FF"/>
<path d="M71 32.2781C71 30.4676 72.4676 29 74.278 29H332.151C333.962 29 335.429 30.4676 335.429 32.278V44.2976H71V32.2781Z" fill="#5294FF"/>
<circle cx="83.0193" cy="36.6489" r="3.27805" fill="#79ACFF"/>
<circle cx="93.946" cy="36.6489" r="3.27805" fill="#79ACFF"/>
<circle cx="104.873" cy="36.6489" r="3.27805" fill="#79ACFF"/>
<path d="M71 44.2976H124.541V172.142H74.278C72.4676 172.142 71 170.674 71 168.863V44.2976Z" fill="#D4E5FF"/>
<circle cx="81.9272" cy="57.4096" r="6.5561" fill="#BDD7FF"/>
<rect x="91.7617" y="51.9463" width="28.4098" height="2.18537" rx="1.09268" fill="#BDD7FF"/>
<rect x="91.7617" y="56.3171" width="28.4098" height="2.18537" rx="1.09268" fill="#BDD7FF"/>
<rect x="91.7617" y="60.6877" width="28.4098" height="2.18537" rx="1.09268" fill="#BDD7FF"/>
<rect x="71" y="93.4683" width="53.5415" height="15.2976" fill="#E6F0FF"/>
<circle cx="79.7418" cy="84.7267" r="4.37073" fill="#BAD5FF"/>
<rect x="88.4834" y="81.9949" width="31.6878" height="5.46341" fill="#BAD5FF"/>
<circle cx="79.7418" cy="101.117" r="4.37073" fill="#8FBBFF"/>
<rect x="88.4834" y="98.385" width="31.6878" height="5.46341" fill="#8FBBFF"/>
<circle cx="79.7418" cy="117.507" r="4.37073" fill="#BAD5FF"/>
<rect x="88.4834" y="114.775" width="31.6878" height="5.46341" fill="#BAD5FF"/>
<circle cx="79.7418" cy="133.897" r="4.37073" fill="#BAD5FF"/>
<rect x="88.4834" y="131.166" width="31.6878" height="5.46341" fill="#BAD5FF"/>
<rect x="131.098" y="95.6541" width="140.956" height="67.7463" fill="#E6F0FF"/>
<rect x="209.77" y="53.0396" width="62.2829" height="38.2439" fill="#E6F0FF"/>
<rect x="209.77" y="53.0396" width="62.2829" height="6.5561" fill="#D6E6FF"/>
<rect x="270.256" y="66.1519" width="1.79662" height="7.64878" fill="#9EC3FF"/>
<rect x="213.363" y="63.9663" width="52.4488" height="4.37073" fill="#D6E6FF"/>
<rect x="213.363" y="73.2542" width="52.4488" height="4.37073" fill="#D6E6FF"/>
<rect x="213.363" y="82.542" width="52.4488" height="4.37073" fill="#D6E6FF"/>
<rect x="131.098" y="53.0396" width="74.3024" height="38.2439" fill="#E6F0FF"/>
<path d="M168.249 80.9029C151.64 65.6054 136.561 73.072 131.098 80.9029V91.2835H205.4V68.8835C196.294 75.4396 176.116 87.0221 168.249 80.9029Z" fill="#D6E6FF"/>
<path d="M278.61 44.2976H335.43V168.863C335.43 170.674 333.962 172.142 332.152 172.142H278.61V44.2976Z" fill="#E6F0FF"/>
<rect x="332.698" y="96.7463" width="2.73171" height="15.2976" fill="#70A7FF"/>
<mask id="path-42-inside-1_2114_219" fill="white">
<path d="M278.61 44.2976H335.43V80.3561H278.61V44.2976Z"/>
</mask>
<path d="M335.43 80.3561V80.0283H278.61V80.3561V80.6839H335.43V80.3561Z" fill="#A4C9FF" mask="url(#path-42-inside-1_2114_219)"/>
<rect x="281.888" y="48.6685" width="38.2439" height="5.46341" fill="#CDE1FF"/>
<rect x="281.888" y="58.5027" width="49.1707" height="5.46341" fill="#CDE1FF"/>
<rect x="281.888" y="65.3865" width="49.1707" height="5.46341" fill="#CDE1FF"/>
<rect x="313.575" y="72.2705" width="17.4829" height="5.46341" fill="#CDE1FF"/>
<line x1="281.888" y1="56.1532" x2="331.058" y2="56.1532" stroke="#CDE1FF" stroke-width="0.327805"/>
<mask id="path-49-inside-2_2114_219" fill="white">
<path d="M278.61 80.356H335.43V116.414H278.61V80.356Z"/>
</mask>
<path d="M335.43 116.414V116.087H278.61V116.414V116.742H335.43V116.414Z" fill="#A4C9FF" mask="url(#path-49-inside-2_2114_219)"/>
<rect x="281.888" y="84.7266" width="38.2439" height="5.46341" fill="#CDE1FF"/>
<rect x="281.888" y="94.5608" width="49.1707" height="5.46341" fill="#CDE1FF"/>
<rect x="281.888" y="101.445" width="49.1707" height="5.46341" fill="#CDE1FF"/>
<rect x="313.575" y="108.329" width="17.4829" height="5.46341" fill="#CDE1FF"/>
<line x1="281.888" y1="92.2113" x2="331.058" y2="92.2113" stroke="#CDE1FF" stroke-width="0.327805"/>
<mask id="path-56-inside-3_2114_219" fill="white">
<path d="M278.61 116.415H335.43V152.473H278.61V116.415Z"/>
</mask>
<path d="M335.43 152.473V152.145H278.61V152.473V152.801H335.43V152.473Z" fill="#A4C9FF" mask="url(#path-56-inside-3_2114_219)"/>
<rect x="281.888" y="120.785" width="38.2439" height="5.46341" fill="#CDE1FF"/>
<rect x="281.888" y="130.619" width="49.1707" height="5.46341" fill="#CDE1FF"/>
<rect x="281.888" y="137.503" width="49.1707" height="5.46341" fill="#CDE1FF"/>
<rect x="313.575" y="144.387" width="17.4829" height="5.46341" fill="#CDE1FF"/>
<line x1="281.888" y1="128.27" x2="331.058" y2="128.27" stroke="#CDE1FF" stroke-width="0.327805"/>
<rect x="281.888" y="156.844" width="38.2439" height="5.46341" fill="#CDE1FF"/>
<rect x="281.888" y="166.678" width="49.1707" height="5.46341" fill="#CDE1FF"/>
<line x1="281.888" y1="164.329" x2="331.058" y2="164.329" stroke="#CDE1FF" stroke-width="0.327805"/>
<defs>
<linearGradient id="paint0_linear_2114_219" x1="120" y1="0" x2="120" y2="10" gradientUnits="userSpaceOnUse">
<stop stop-color="white"/>
<stop offset="1" stop-color="#BCCCFF"/>
</linearGradient>
<linearGradient id="paint1_linear_2114_219" x1="322.5" y1="224" x2="322.5" y2="243" gradientUnits="userSpaceOnUse">
<stop stop-color="white"/>
<stop offset="1" stop-color="#BCCCFF"/>
</linearGradient>
<linearGradient id="paint2_linear_2114_219" x1="32" y1="198" x2="32" y2="208" gradientUnits="userSpaceOnUse">
<stop stop-color="white"/>
<stop offset="1" stop-color="#BCCCFF"/>
</linearGradient>
<linearGradient id="paint3_linear_2114_219" x1="362" y1="56" x2="362" y2="64" gradientUnits="userSpaceOnUse">
<stop stop-color="white"/>
<stop offset="1" stop-color="#BCCCFF"/>
</linearGradient>
<linearGradient id="paint4_linear_2114_219" x1="124" y1="208" x2="124" y2="216" gradientUnits="userSpaceOnUse">
<stop stop-color="white"/>
<stop offset="1" stop-color="#BCCCFF"/>
</linearGradient>
<linearGradient id="paint5_linear_2114_219" x1="395.5" y1="132" x2="395.5" y2="145" gradientUnits="userSpaceOnUse">
<stop stop-color="white"/>
<stop offset="1" stop-color="#BCCCFF"/>
</linearGradient>
<linearGradient id="paint6_linear_2114_219" x1="6.44629" y1="64" x2="6.44629" y2="76.8926" gradientUnits="userSpaceOnUse">
<stop stop-color="white"/>
<stop offset="1" stop-color="#BCCCFF"/>
</linearGradient>
</defs>
</svg>
