<svg width="39" height="39" viewBox="0 0 39 39" fill="none" xmlns="http://www.w3.org/2000/svg">
<circle cx="19.5" cy="19.5" r="19.5" fill="#E5EAFF"/>
<path fill-rule="evenodd" clip-rule="evenodd" d="M19.5002 28.8764L20.1978 29.5794C20.1063 29.6723 19.9975 29.746 19.8777 29.7962C19.7579 29.8465 19.6294 29.8724 19.4997 29.8724C19.3699 29.8724 19.2415 29.8465 19.1217 29.7962C19.0019 29.746 18.8931 29.6723 18.8015 29.5794L18.7956 29.5724L18.7789 29.5555L18.7178 29.4928C18.3705 29.1311 18.0288 28.764 17.693 28.3915C16.8502 27.4577 16.0429 26.4918 15.2729 25.4959C14.394 24.3508 13.4953 23.0564 12.8124 21.7778C12.1444 20.5242 11.6172 19.166 11.6172 17.9234C11.6172 13.4037 15.1566 9.95752 19.5002 9.95752C23.8437 9.95752 27.3831 13.4037 27.3831 17.9234C27.3831 19.166 26.856 20.5242 26.1879 21.7768C25.505 23.0573 24.6074 24.3508 23.7274 25.4959C22.6502 26.889 21.5003 28.2232 20.2826 29.4928L20.2215 29.5555L20.2047 29.5724L20.1988 29.5784L19.5002 28.8764ZM19.5002 20.9106C20.2842 20.9106 21.0361 20.5958 21.5905 20.0356C22.1448 19.4754 22.4563 18.7156 22.4563 17.9234C22.4563 17.1311 22.1448 16.3713 21.5905 15.8111C21.0361 15.2509 20.2842 14.9362 19.5002 14.9362C18.7162 14.9362 17.9643 15.2509 17.4099 15.8111C16.8555 16.3713 16.544 17.1311 16.544 17.9234C16.544 18.7156 16.8555 19.4754 17.4099 20.0356C17.9643 20.5958 18.7162 20.9106 19.5002 20.9106Z" fill="#0061FD"/>
</svg>
