<svg width="23" height="22" viewBox="0 0 23 22" fill="none" xmlns="http://www.w3.org/2000/svg">
<path d="M21.939 11C21.939 16.799 17.238 21.5 11.439 21.5C5.63998 21.5 0.938965 16.799 0.938965 11C0.938965 5.20101 5.63998 0.5 11.439 0.5C17.238 0.5 21.939 5.20101 21.939 11Z" fill="white" stroke="#5873EE"/>
<path d="M16.7057 7.81928L9.24102 4.53334C9.16712 4.50069 9.08749 4.48301 9.00672 4.48133C8.92595 4.47965 8.84565 4.49401 8.77046 4.52356C8.69533 4.55325 8.62684 4.59754 8.56894 4.65387C8.51103 4.7102 8.46487 4.77745 8.43313 4.85173L6.59979 9.12951C6.53595 9.27846 6.53389 9.44667 6.59405 9.59714C6.65422 9.74761 6.77169 9.86803 6.92063 9.9319L11.1721 11.7536L10.4143 13.6481H7.77252V11.8147H6.55029V16.7036H7.77252V14.8703H10.4143C10.9173 14.8703 11.3628 14.5684 11.5486 14.1015L12.2954 12.2352L14.3847 13.1305C14.533 13.1942 14.7005 13.1966 14.8506 13.1373C15.0007 13.078 15.1212 12.9618 15.1859 12.8139L17.0192 8.62351C17.0841 8.47526 17.0875 8.30735 17.0288 8.15658C16.97 8.00582 16.8538 7.88452 16.7057 7.81928ZM17.5075 13.2643L16.3721 12.8108L17.5931 9.75529L18.7285 10.2081L17.5075 13.2643Z" fill="#5873EE"/>
</svg>
