<svg width="23" height="22" viewBox="0 0 23 22" fill="none" xmlns="http://www.w3.org/2000/svg">
<circle cx="11.439" cy="11" r="10.5" fill="white" stroke="#8D8D8D"/>
<path d="M16.7053 7.81977L9.24053 4.53383C9.16663 4.50118 9.087 4.4835 9.00623 4.48182C8.92546 4.48014 8.84516 4.4945 8.76997 4.52405C8.69485 4.55374 8.62635 4.59803 8.56845 4.65436C8.51055 4.71069 8.46439 4.77794 8.43264 4.85222L6.5993 9.13C6.53546 9.27895 6.5334 9.44716 6.59357 9.59763C6.65373 9.7481 6.7712 9.86851 6.92014 9.93238L11.1716 11.7541L10.4139 13.6486H7.77203V11.8152H6.5498V16.7041H7.77203V14.8708H10.4139C10.9168 14.8708 11.3623 14.5689 11.5481 14.102L12.2949 12.2357L14.3843 13.1309C14.5325 13.1947 14.7 13.1971 14.8501 13.1378C15.0002 13.0785 15.1207 12.9622 15.1854 12.8144L17.0188 8.624C17.0836 8.47575 17.087 8.30783 17.0283 8.15707C16.9695 8.00631 16.8533 7.88501 16.7053 7.81977ZM17.507 13.2648L16.3716 12.8113L17.5926 9.75577L18.728 10.2086L17.507 13.2648Z" fill="#8D8D8D"/>
</svg>
