<svg width="23" height="23" viewBox="0 0 23 23" fill="none" xmlns="http://www.w3.org/2000/svg">
<path d="M21.8309 8.45817C21.9534 8.17451 21.9599 7.85321 21.8489 7.56473C21.7379 7.27625 21.5185 7.04415 21.2388 6.91933L6.14903 0.188648C5.0007 -0.32352 3.58693 0.248283 3.09644 1.40709L0.545888 7.43384C0.30562 8.00388 0.298535 8.64726 0.52619 9.22259C0.753845 9.79793 1.19762 10.2582 1.76 10.5022L8.72843 13.5284L7.29736 17.1533H2.30819V13.6453H0V23H2.30819V19.492H7.29736C8.24718 19.492 9.08851 18.9144 9.43936 18.021L10.8497 14.4498L16.8567 17.0574C17.1365 17.1791 17.4524 17.1838 17.7355 17.0706C18.0187 16.9573 18.2462 16.7353 18.3686 16.4529L18.7287 15.6227L20.6918 16.4178L23 10.5712L21.2273 9.85436L21.8309 8.45817ZM16.7136 14.4522L2.66943 8.3541L5.21767 2.3297L19.2538 8.59031L16.7136 14.4522Z" fill="black"/>
</svg>
