<svg width="19" height="23" viewBox="0 0 19 23" fill="none" xmlns="http://www.w3.org/2000/svg">
<path d="M2.75 22.75C2.13125 22.75 1.60175 22.5299 1.1615 22.0896C0.72125 21.6494 0.50075 21.1195 0.5 20.5V2.5C0.5 1.88125 0.7205 1.35175 1.1615 0.9115C1.6025 0.47125 2.132 0.25075 2.75 0.25H10.8219C11.1219 0.25 11.408 0.30625 11.6803 0.41875C11.9525 0.53125 12.1914 0.690625 12.3969 0.896875L17.8531 6.35313C18.0594 6.55938 18.2188 6.79862 18.3313 7.07087C18.4438 7.34312 18.5 7.62887 18.5 7.92812V20.5C18.5 21.1187 18.2799 21.6486 17.8396 22.0896C17.3994 22.5306 16.8695 22.7507 16.25 22.75H2.75ZM10.625 7V2.5H2.75V20.5H16.25V8.125H11.75C11.4312 8.125 11.1643 8.017 10.949 7.801C10.7338 7.585 10.6257 7.318 10.625 7Z" fill="black"/>
</svg>
