<svg width="54" height="54" viewBox="0 0 54 54" fill="none" xmlns="http://www.w3.org/2000/svg">
<path fill-rule="evenodd" clip-rule="evenodd" d="M27 54C41.9117 54 54 41.9117 54 27C54 12.0883 41.9117 0 27 0C12.0883 0 0 12.0883 0 27C0 41.9117 12.0883 54 27 54ZM25.2857 33.4286H26.5714H27.8571L29.1429 12H26.5714H24L25.2857 33.4286ZM29.1429 39.4286C29.1429 40.8487 27.9916 42 26.5714 42C25.1513 42 24 40.8487 24 39.4286C24 38.0084 25.1513 36.8571 26.5714 36.8571C27.9916 36.8571 29.1429 38.0084 29.1429 39.4286Z" fill="#FFDF86"/>
</svg>
