<svg width="187" height="27" viewBox="0 0 187 27" fill="none" xmlns="http://www.w3.org/2000/svg">
<path d="M21.5032 0.545454V26H16.8548L5.78054 9.97905H5.59411V26H0.212358V0.545454H4.93537L15.9226 16.554H16.1463V0.545454H21.5032ZM41.6723 0.545454H47.0541V17.076C47.0541 18.9321 46.6108 20.5561 45.7242 21.9482C44.8459 23.3402 43.6154 24.4257 42.0328 25.2045C40.4501 25.9751 38.6065 26.3604 36.5019 26.3604C34.3889 26.3604 32.5412 25.9751 30.9585 25.2045C29.3759 24.4257 28.1454 23.3402 27.2671 21.9482C26.3888 20.5561 25.9497 18.9321 25.9497 17.076V0.545454H31.3314V16.6161C31.3314 17.5856 31.5427 18.4473 31.9653 19.2013C32.3962 19.9554 33.001 20.5478 33.7799 20.9787C34.5588 21.4096 35.4661 21.625 36.5019 21.625C37.5459 21.625 38.4532 21.4096 39.2238 20.9787C40.0027 20.5478 40.6034 19.9554 41.026 19.2013C41.4569 18.4473 41.6723 17.5856 41.6723 16.6161V0.545454ZM51.4819 26V0.545454H61.5245C63.4469 0.545454 65.0875 0.889322 66.4464 1.57706C67.8136 2.25651 68.8535 3.22183 69.5661 4.47301C70.2869 5.71591 70.6474 7.17838 70.6474 8.86044C70.6474 10.5508 70.2828 12.005 69.5536 13.223C68.8245 14.4328 67.768 15.3608 66.3842 16.0071C65.0088 16.6534 63.3433 16.9766 61.3878 16.9766H54.6637V12.6513H60.5178C61.5452 12.6513 62.3987 12.5104 63.0781 12.2287C63.7576 11.947 64.263 11.5244 64.5945 10.9609C64.9342 10.3975 65.104 9.69732 65.104 8.86044C65.104 8.01527 64.9342 7.30267 64.5945 6.72266C64.263 6.14264 63.7534 5.70348 63.0657 5.40518C62.3862 5.0986 61.5286 4.94531 60.4929 4.94531H56.8636V26H51.4819ZM65.2283 14.4162L71.5547 26H65.6136L59.424 14.4162H65.2283ZM79.8324 0.545454V26H74.4506V0.545454H79.8324ZM105.551 0.545454V26H100.903L89.8284 9.97905H89.642V26H84.2602V0.545454H88.9832L99.9704 16.554H100.194V0.545454H105.551ZM133.389 13.2727C133.389 16.0485 132.863 18.41 131.81 20.3572C130.766 22.3045 129.341 23.7918 127.535 24.8192C125.737 25.8384 123.715 26.348 121.469 26.348C119.207 26.348 117.177 25.8343 115.379 24.8068C113.581 23.7794 112.16 22.292 111.116 20.3448C110.072 18.3976 109.55 16.0402 109.55 13.2727C109.55 10.4969 110.072 8.13542 111.116 6.18821C112.16 4.241 113.581 2.75781 115.379 1.73864C117.177 0.711174 119.207 0.197442 121.469 0.197442C123.715 0.197442 125.737 0.711174 127.535 1.73864C129.341 2.75781 130.766 4.241 131.81 6.18821C132.863 8.13542 133.389 10.4969 133.389 13.2727ZM127.933 13.2727C127.933 11.4747 127.663 9.95833 127.125 8.72372C126.594 7.48911 125.844 6.55279 124.875 5.91477C123.906 5.27675 122.77 4.95774 121.469 4.95774C120.169 4.95774 119.033 5.27675 118.064 5.91477C117.094 6.55279 116.34 7.48911 115.802 8.72372C115.272 9.95833 115.006 11.4747 115.006 13.2727C115.006 15.0708 115.272 16.5871 115.802 17.8217C116.34 19.0563 117.094 19.9927 118.064 20.6307C119.033 21.2687 120.169 21.5877 121.469 21.5877C122.77 21.5877 123.906 21.2687 124.875 20.6307C125.844 19.9927 126.594 19.0563 127.125 17.8217C127.663 16.5871 127.933 15.0708 127.933 13.2727ZM160.767 13.2727C160.767 16.0485 160.241 18.41 159.188 20.3572C158.144 22.3045 156.719 23.7918 154.913 24.8192C153.115 25.8384 151.093 26.348 148.847 26.348C146.585 26.348 144.555 25.8343 142.757 24.8068C140.959 23.7794 139.538 22.292 138.494 20.3448C137.45 18.3976 136.928 16.0402 136.928 13.2727C136.928 10.4969 137.45 8.13542 138.494 6.18821C139.538 4.241 140.959 2.75781 142.757 1.73864C144.555 0.711174 146.585 0.197442 148.847 0.197442C151.093 0.197442 153.115 0.711174 154.913 1.73864C156.719 2.75781 158.144 4.241 159.188 6.18821C160.241 8.13542 160.767 10.4969 160.767 13.2727ZM155.31 13.2727C155.31 11.4747 155.041 9.95833 154.503 8.72372C153.972 7.48911 153.222 6.55279 152.253 5.91477C151.283 5.27675 150.148 4.95774 148.847 4.95774C147.546 4.95774 146.411 5.27675 145.442 5.91477C144.472 6.55279 143.718 7.48911 143.18 8.72372C142.649 9.95833 142.384 11.4747 142.384 13.2727C142.384 15.0708 142.649 16.5871 143.18 17.8217C143.718 19.0563 144.472 19.9927 145.442 20.6307C146.411 21.2687 147.546 21.5877 148.847 21.5877C150.148 21.5877 151.283 21.2687 152.253 20.6307C153.222 19.9927 153.972 19.0563 154.503 17.8217C155.041 16.5871 155.31 15.0708 155.31 13.2727ZM186.044 0.545454V26H181.396L170.322 9.97905H170.135V26H164.753V0.545454H169.476L180.464 16.554H180.687V0.545454H186.044Z" fill="#4C64CF"/>
</svg>
