<svg width="124" height="22" viewBox="0 0 124 22" fill="none" xmlns="http://www.w3.org/2000/svg">
<path d="M38.1586 4.90909V18H35.768L30.0727 9.76065H29.9768V18H27.2091V4.90909H29.6381L35.2886 13.142H35.4037V4.90909H38.1586ZM48.5313 4.90909H51.2991V13.4105C51.2991 14.3651 51.0711 15.2003 50.6151 15.9162C50.1634 16.6321 49.5306 17.1903 48.7167 17.5909C47.9028 17.9872 46.9546 18.1854 45.8722 18.1854C44.7856 18.1854 43.8353 17.9872 43.0214 17.5909C42.2075 17.1903 41.5747 16.6321 41.123 15.9162C40.6713 15.2003 40.4454 14.3651 40.4454 13.4105V4.90909H43.2132V13.174C43.2132 13.6726 43.3218 14.1158 43.5392 14.5036C43.7607 14.8913 44.0718 15.196 44.4724 15.4176C44.873 15.6392 45.3396 15.75 45.8722 15.75C46.4092 15.75 46.8758 15.6392 47.2721 15.4176C47.6727 15.196 47.9816 14.8913 48.199 14.5036C48.4205 14.1158 48.5313 13.6726 48.5313 13.174V4.90909ZM53.5763 18V4.90909H58.741C59.7297 4.90909 60.5734 5.08594 61.2723 5.43963C61.9754 5.78906 62.5102 6.28551 62.8767 6.92898C63.2474 7.56818 63.4328 8.32031 63.4328 9.18537C63.4328 10.0547 63.2453 10.8026 62.8703 11.429C62.4953 12.0511 61.952 12.5284 61.2403 12.8608C60.5329 13.1932 59.6764 13.3594 58.6707 13.3594H55.2126V11.1349H58.2233C58.7517 11.1349 59.1906 11.0625 59.54 10.9176C59.8895 10.7727 60.1494 10.5554 60.3199 10.2656C60.4946 9.97585 60.5819 9.61577 60.5819 9.18537C60.5819 8.75071 60.4946 8.38423 60.3199 8.08594C60.1494 7.78764 59.8873 7.56179 59.5336 7.40838C59.1842 7.25071 58.7432 7.17188 58.2105 7.17188H56.344V18H53.5763ZM60.6459 12.0426L63.8994 18H60.844L57.6608 12.0426H60.6459ZM68.1565 4.90909V18H65.3888V4.90909H68.1565ZM81.3833 4.90909V18H78.9926L73.2973 9.76065H73.2014V18H70.4337V4.90909H72.8627L78.5132 13.142H78.6283V4.90909H81.3833ZM95.6998 11.4545C95.6998 12.8821 95.4292 14.0966 94.8881 15.098C94.3511 16.0994 93.6182 16.8643 92.6892 17.3928C91.7645 17.9169 90.7247 18.179 89.5699 18.179C88.4065 18.179 87.3625 17.9148 86.4378 17.3864C85.5131 16.858 84.7822 16.093 84.2453 15.0916C83.7084 14.0902 83.4399 12.8778 83.4399 11.4545C83.4399 10.027 83.7084 8.8125 84.2453 7.81108C84.7822 6.80966 85.5131 6.04687 86.4378 5.52273C87.3625 4.99432 88.4065 4.73011 89.5699 4.73011C90.7247 4.73011 91.7645 4.99432 92.6892 5.52273C93.6182 6.04687 94.3511 6.80966 94.8881 7.81108C95.4292 8.8125 95.6998 10.027 95.6998 11.4545ZM92.8937 11.4545C92.8937 10.5298 92.7552 9.75 92.4782 9.11506C92.2055 8.48011 91.8199 7.99858 91.3213 7.67045C90.8227 7.34233 90.2389 7.17827 89.5699 7.17827C88.9008 7.17827 88.317 7.34233 87.8184 7.67045C87.3199 7.99858 86.9321 8.48011 86.6551 9.11506C86.3824 9.75 86.246 10.5298 86.246 11.4545C86.246 12.3793 86.3824 13.1591 86.6551 13.794C86.9321 14.429 87.3199 14.9105 87.8184 15.2386C88.317 15.5668 88.9008 15.7308 89.5699 15.7308C90.2389 15.7308 90.8227 15.5668 91.3213 15.2386C91.8199 14.9105 92.2055 14.429 92.4782 13.794C92.7552 13.1591 92.8937 12.3793 92.8937 11.4545ZM109.78 11.4545C109.78 12.8821 109.509 14.0966 108.968 15.098C108.431 16.0994 107.698 16.8643 106.769 17.3928C105.845 17.9169 104.805 18.179 103.65 18.179C102.487 18.179 101.443 17.9148 100.518 17.3864C99.5931 16.858 98.8623 16.093 98.3254 15.0916C97.7884 14.0902 97.52 12.8778 97.52 11.4545C97.52 10.027 97.7884 8.8125 98.3254 7.81108C98.8623 6.80966 99.5931 6.04687 100.518 5.52273C101.443 4.99432 102.487 4.73011 103.65 4.73011C104.805 4.73011 105.845 4.99432 106.769 5.52273C107.698 6.04687 108.431 6.80966 108.968 7.81108C109.509 8.8125 109.78 10.027 109.78 11.4545ZM106.974 11.4545C106.974 10.5298 106.835 9.75 106.558 9.11506C106.286 8.48011 105.9 7.99858 105.401 7.67045C104.903 7.34233 104.319 7.17827 103.65 7.17827C102.981 7.17827 102.397 7.34233 101.899 7.67045C101.4 7.99858 101.012 8.48011 100.735 9.11506C100.462 9.75 100.326 10.5298 100.326 11.4545C100.326 12.3793 100.462 13.1591 100.735 13.794C101.012 14.429 101.4 14.9105 101.899 15.2386C102.397 15.5668 102.981 15.7308 103.65 15.7308C104.319 15.7308 104.903 15.5668 105.401 15.2386C105.9 14.9105 106.286 14.429 106.558 13.794C106.835 13.1591 106.974 12.3793 106.974 11.4545ZM122.78 4.90909V18H120.389L114.694 9.76065H114.598V18H111.83V4.90909H114.259L119.91 13.142H120.025V4.90909H122.78Z" fill="#FBFCFF"/>
<path d="M15.5153 8.21868L5.33616 3.73785C5.23539 3.69332 5.1268 3.66922 5.01666 3.66693C4.90652 3.66464 4.79702 3.68421 4.69449 3.72451C4.59205 3.765 4.49864 3.82539 4.41969 3.90221C4.34073 3.97902 4.27778 4.07072 4.23449 4.17201L1.73449 10.0053C1.64744 10.2085 1.64462 10.4378 1.72667 10.643C1.80871 10.8482 1.9689 11.0124 2.17199 11.0995L7.96949 13.5837L6.93616 16.167H3.33366V13.667H1.66699V20.3337H3.33366V17.8337H6.93616C7.62199 17.8337 8.22949 17.422 8.48283 16.7853L9.50116 14.2403L12.3503 15.4612C12.5525 15.5481 12.7809 15.5514 12.9856 15.4706C13.1902 15.3897 13.3546 15.2311 13.4428 15.0295L15.9428 9.31535C16.0313 9.1132 16.0359 8.88422 15.9558 8.67863C15.8757 8.47304 15.7173 8.30763 15.5153 8.21868ZM16.6087 15.6437L15.0603 15.0253L16.7253 10.8587L18.2737 11.4762L16.6087 15.6437Z" fill="#FBFCFF"/>
</svg>
