<svg width="3044" height="769" viewBox="0 0 3044 769" fill="none" xmlns="http://www.w3.org/2000/svg">
<path d="M466.585 70.2746C474.739 24.0306 518.837 -6.84798 565.081 1.30583L949.661 69.1183C986.964 76.1039 1005.39 83.7316 1009.99 94.2267C1011.1 96.2463 1011.73 98.5645 1011.73 101.03C1011.73 108.857 1003.68 115.107 995.852 115.108C995.667 115.108 995.483 115.101 995.3 115.096C874.18 120.312 792.91 162.052 759.302 258.902C757.722 265.03 751.913 272.02 744.602 271.49C742.979 271.373 741.463 271.145 740.071 270.8L624.935 250.947V375.529C624.934 403.484 602.45 426.186 574.579 426.539L573.92 426.544H525.073C519.492 436.344 510.421 443.413 499.816 445.561V591.106C499.816 628.513 508.194 656.179 524.949 674.103C541.704 691.637 565.473 700.404 596.256 700.404C627.428 700.404 651.198 691.442 667.563 673.518C684.319 655.204 692.696 627.733 692.696 591.106V354.389H769.849V592.859C769.849 647.41 754.457 690.273 723.674 721.445C692.891 752.618 650.418 768.204 596.256 768.204C542.094 768.204 499.622 752.618 468.839 721.445C438.056 690.273 422.664 647.411 422.664 592.859V354.389H499.816V363.194C510.486 366.977 520.247 374.029 525.907 384.024H561.166C565.952 384.024 570.367 382.44 573.92 379.772V379.78C579.082 375.902 582.422 369.729 582.422 362.776C582.422 362.406 582.411 362.038 582.393 361.673C582.409 361.333 582.422 360.99 582.422 360.646V243.617L528.327 234.29C527.944 234.223 527.56 234.154 527.178 234.081L487.483 226.822C461.676 223.654 443.801 199.495 448.315 173.889L454.773 137.26L466.585 70.2746ZM1977.93 347.369C2019.63 347.369 2055.48 355.942 2085.48 373.087C2115.48 390.232 2138.28 414.585 2153.86 446.148C2169.45 477.71 2177.24 514.922 2177.24 557.784C2177.24 600.646 2169.45 637.859 2153.86 669.421C2138.28 700.983 2115.48 725.337 2085.48 742.482C2055.48 759.626 2019.63 768.198 1977.93 768.198C1936.24 768.198 1900.39 759.627 1870.39 742.482C1840.39 725.337 1817.59 700.983 1802 669.421C1786.42 637.859 1778.62 600.646 1778.62 557.784C1778.62 514.922 1786.42 477.71 1802 446.148C1817.59 414.586 1840.39 390.232 1870.39 373.087C1900.39 355.942 1936.24 347.369 1977.93 347.369ZM2429.84 347.369C2471.53 347.369 2507.38 355.942 2537.39 373.087C2567.39 390.232 2590.18 414.585 2605.77 446.148C2621.36 477.71 2629.15 514.922 2629.15 557.784C2629.15 600.646 2621.36 637.859 2605.77 669.421C2590.18 700.983 2567.39 725.337 2537.39 742.482C2507.38 759.626 2471.53 768.198 2429.84 768.198C2388.15 768.198 2352.3 759.626 2322.3 742.482C2292.29 725.337 2269.5 700.983 2253.91 669.421C2238.32 637.859 2230.53 600.646 2230.53 557.784C2230.53 514.922 2238.32 477.71 2253.91 446.148C2269.5 414.585 2292.29 390.232 2322.3 373.087C2352.3 355.942 2388.15 347.369 2429.84 347.369ZM270.032 622.667V354.389H347.185V761.191H270.032L77.1523 492.327V761.191H0V354.389H77.1523L270.032 622.667ZM992.308 354.389C1044.91 354.389 1084.27 364.91 1110.37 385.951C1136.48 406.993 1149.53 437.581 1149.53 477.715C1149.53 506.16 1143.1 530.319 1130.25 550.192C1117.39 570.064 1098.29 584.871 1072.97 594.612L1162.98 761.191H1078.23L995.229 606.302H922.754V761.191H845.602V354.389H992.308ZM1287.79 761.191H1210.63V354.389H1287.79V761.191ZM1634.17 622.667V354.389H1711.33V761.191H1634.17L1441.29 492.327V761.191H1364.14V354.389H1441.29L1634.17 622.667ZM2966.5 622.667V354.389H3043.65V761.191H2966.5L2773.62 492.327V761.191H2696.47V354.389H2773.62L2966.5 622.667ZM1977.93 418.677C1941.31 418.677 1912.47 430.756 1891.43 454.914C1870.39 478.683 1859.87 512.974 1859.87 557.784C1859.87 602.595 1870.39 637.079 1891.43 661.237C1912.47 685.007 1941.31 696.892 1977.93 696.892C2014.56 696.892 2043.4 685.006 2064.44 661.237C2085.48 637.079 2096 602.594 2096 557.784C2096 512.974 2085.48 478.683 2064.44 454.914C2043.4 430.756 2014.56 418.677 1977.93 418.677ZM2429.84 418.677C2393.21 418.677 2364.38 430.756 2343.34 454.914C2322.3 478.683 2311.77 512.974 2311.77 557.784C2311.77 602.595 2322.3 637.079 2343.34 661.237C2364.38 685.007 2393.21 696.892 2429.84 696.892C2466.47 696.892 2495.3 685.006 2516.34 661.237C2537.39 637.079 2547.91 602.594 2547.91 557.784C2547.91 512.974 2537.39 478.683 2516.34 454.914C2495.3 430.756 2466.47 418.677 2429.84 418.677ZM922.754 538.502H992.892C1018.61 538.502 1037.51 534.021 1049.59 525.059C1062.06 516.097 1068.29 500.9 1068.29 479.469C1068.29 458.817 1062.25 444.204 1050.17 435.632C1038.09 427.06 1018.8 422.774 992.308 422.774H922.754V538.502ZM848.789 220.04C861.015 198.864 916.297 147.994 938.989 157.761C958.795 172.53 939.793 244.885 927.567 266.061C914.354 285.928 887.622 293.696 866.452 281.474C845.283 269.251 837.229 241.616 848.789 220.04Z" fill="#5873EE"/>
</svg>
