<svg width="23" height="31" viewBox="0 0 23 31" fill="none" xmlns="http://www.w3.org/2000/svg">
<path d="M1 11.0205C1 5.48631 5.48634 0.999979 11.0205 0.999979C16.5547 0.999979 21.041 5.48631 21.041 11.0205C21.041 13.3206 20.1609 16.7087 18.7057 20.0412C17.2514 23.3715 15.2974 26.4748 13.2758 28.2709C12.007 29.3982 10.1216 29.3493 8.88013 28.155C6.95564 26.3035 4.97223 23.1963 3.46552 19.902C1.95324 16.5956 1 13.2729 1 11.0205Z" fill="#C5CAE4" stroke="#5873EE" stroke-width="2"/>
<path d="M16.7507 10.9169C16.7507 14.1405 14.1375 16.7537 10.9139 16.7537C7.69037 16.7537 5.07715 14.1405 5.07715 10.9169C5.07715 7.6933 7.69037 5.08008 10.9139 5.08008C14.1375 5.08008 16.7507 7.6933 16.7507 10.9169Z" fill="white" stroke="#5873EE" stroke-width="2"/>
</svg>
