<svg width="13" height="13" viewBox="0 0 13 13" fill="none" xmlns="http://www.w3.org/2000/svg">
<path d="M6.44531 0C7.09224 8.04245e-05 7.62418 0.492102 7.68848 1.12207L7.69531 1.25V5.19629H11.6426L11.7705 5.20312C12.4006 5.26726 12.8924 5.79936 12.8926 6.44629C12.8926 7.09339 12.4007 7.6253 11.7705 7.68945L11.6426 7.69629H7.69531V11.6426C7.69531 12.3329 7.1356 12.8925 6.44531 12.8926C5.75496 12.8926 5.19531 12.3329 5.19531 11.6426V7.69629H1.25C0.559661 7.69627 0 7.13663 0 6.44629C0.000204561 5.75612 0.559787 5.19631 1.25 5.19629H5.19531V1.25L5.20215 1.12207C5.26646 0.492066 5.79833 0 6.44531 0Z" fill="url(#paint0_linear_2064_902)"/>
<defs>
<linearGradient id="paint0_linear_2064_902" x1="6.44629" y1="0" x2="6.44629" y2="12.8926" gradientUnits="userSpaceOnUse">
<stop stop-color="white"/>
<stop offset="1" stop-color="#BCCCFF"/>
</linearGradient>
</defs>
</svg>
