<svg width="179" height="179" viewBox="0 0 179 179" fill="none" xmlns="http://www.w3.org/2000/svg">
<circle cx="88.4896" cy="89.8614" r="67.9105" fill="#FFFAEE"/>
<path d="M89.1753 65.0236C84.0477 65.0236 79.8862 69.1852 79.8862 74.3127V75.1079C79.8862 76.5861 79.299 78.0037 78.2538 79.0489C77.2085 80.0941 75.7909 80.6814 74.3127 80.6814C72.8345 80.6814 71.4169 80.0941 70.3717 79.0489C69.3265 78.0037 68.7393 76.5861 68.7393 75.1079V74.3127C68.7393 68.8928 70.8923 63.6948 74.7248 59.8623C78.5573 56.0298 83.7553 53.8767 89.1753 53.8767H90.0373C94.0351 53.8785 97.9365 55.1045 101.217 57.3896C104.497 59.6748 106.999 62.9096 108.386 66.6591C109.773 70.4085 109.979 74.4928 108.976 78.3627C107.973 82.2326 105.809 85.7025 102.775 88.3059L97.0525 93.2105C96.3346 93.8337 95.7577 94.6028 95.3605 95.4664C94.9633 96.3301 94.7547 97.2685 94.7488 98.2192V102.18C94.7488 103.658 94.1615 105.076 93.1163 106.121C92.0711 107.166 90.6535 107.754 89.1753 107.754C87.6971 107.754 86.2795 107.166 85.2343 106.121C84.189 105.076 83.6018 103.658 83.6018 102.18V98.2192C83.6018 93.0396 85.8609 88.1201 89.7921 84.7537L95.5216 79.849C96.8289 78.7285 97.7617 77.2343 98.1942 75.5677C98.6268 73.901 98.5384 72.1419 97.941 70.527C97.3436 68.9121 96.2658 67.5189 94.8528 66.535C93.4397 65.5511 91.7592 65.0236 90.0373 65.0236H89.1753ZM89.1753 126.332C91.1462 126.332 93.0364 125.549 94.43 124.155C95.8236 122.762 96.6066 120.871 96.6066 118.9C96.6066 116.93 95.8236 115.039 94.43 113.646C93.0364 112.252 91.1462 111.469 89.1753 111.469C87.2044 111.469 85.3142 112.252 83.9206 113.646C82.5269 115.039 81.744 116.93 81.744 118.9C81.744 120.871 82.5269 122.762 83.9206 124.155C85.3142 125.549 87.2044 126.332 89.1753 126.332Z" fill="#FFDF86"/>
</svg>
