<svg width="490" height="531" viewBox="0 0 490 531" fill="none" xmlns="http://www.w3.org/2000/svg">
<path d="M8.64133 340.705C-6.14022 286.181 -1.87149 228.448 20.781 176.524C43.4335 124.6 83.1941 81.4095 133.851 53.6992L155.516 90.8994C113.341 113.97 80.2383 149.929 61.3786 193.159C42.519 236.389 38.9646 284.456 51.2712 329.851C63.5779 375.245 91.052 415.411 129.402 444.074C156.923 464.643 188.933 478.457 222.715 484.618V471.562C210.252 469.13 198.026 465.671 186.194 461.209C160.61 451.56 137.364 437.416 117.783 419.587C98.2016 401.758 82.6684 380.591 72.071 357.296C61.4737 334.001 56.0193 309.033 56.0193 283.818C56.0193 258.604 61.4738 233.637 72.071 210.342C82.6684 187.047 98.2017 165.88 117.783 148.051C137.364 130.222 160.61 116.078 186.194 106.429C197.738 102.075 209.656 98.6778 221.804 96.2568V0L225.905 0.263672V0.000976562C238.821 0.000978013 251.657 0.924071 264.315 2.7334L266.438 2.86914V3.04297C310.009 9.62324 351.406 26.7447 386.669 53.0996C432.731 87.5269 465.731 135.771 480.512 190.295C495.294 244.819 491.025 302.552 468.373 354.476C445.72 406.4 405.96 449.59 355.302 477.301L333.637 440.101C375.813 417.03 408.915 381.071 427.775 337.841C446.635 294.611 450.189 246.544 437.883 201.149C425.576 155.755 398.102 115.589 359.752 86.9258C332.23 66.3564 300.22 52.5431 266.438 46.3818V59.4375C278.894 61.8686 291.113 65.3261 302.938 69.7861C328.522 79.4353 351.769 93.578 371.35 111.407C390.931 129.236 406.464 150.403 417.061 173.698C427.659 196.993 433.113 221.961 433.113 247.176C433.113 272.39 427.659 297.358 417.061 320.653C406.464 343.948 390.932 365.115 371.35 382.944C351.769 400.774 328.522 414.916 302.938 424.565C291.401 428.917 279.49 432.313 267.349 434.733V531L263.249 530.736V530.999C250.333 530.999 237.497 530.076 224.84 528.267L222.715 528.131V527.957C179.144 521.377 137.747 504.255 102.485 477.9C56.4224 443.473 23.4229 395.229 8.64133 340.705ZM108.079 283.818C108.079 302.808 112.187 321.612 120.168 339.156C128.149 356.7 139.847 372.642 154.594 386.069C169.342 399.497 186.849 410.148 206.117 417.415C211.396 419.406 216.779 421.13 222.241 422.587V391.779C243.096 391.779 263.748 388.039 283.015 380.772C302.283 373.505 319.792 362.853 334.539 349.426C349.286 335.998 360.984 320.058 368.965 302.514C376.946 284.97 381.053 266.165 381.053 247.176C381.053 228.186 376.946 209.383 368.965 191.839C360.984 174.295 349.286 158.353 334.539 144.926C319.792 131.498 302.283 120.846 283.015 113.579C277.737 111.588 272.354 109.865 266.892 108.408V139.215C246.037 139.215 225.385 142.956 206.117 150.223C186.849 157.49 169.342 168.141 154.594 181.568C139.847 194.996 128.149 210.937 120.168 228.481C112.187 246.025 108.079 264.829 108.079 283.818Z" fill="url(#paint0_linear_2882_2941)"/>
<path d="M197.052 193.846L201.935 190.32L207.089 187.607L216.584 183.538L225.808 180.825L235.303 179.197L245.069 178.383L254.835 178.655L259.718 179.197L264.601 180.011L269.756 181.367L274.639 182.995L225.808 233.996L207.361 254.614L201.935 223.959L199.222 208.767L198.137 200.9L197.052 193.846Z" fill="#9AA5D0"/>
<path d="M281.445 187.304L287.016 189.595L292.038 192.546L300.5 198.47L307.667 204.879L314.055 212.09L319.894 219.961L324.811 228.403L326.923 232.839L328.805 237.418L330.369 242.513L331.56 247.521L262.48 232.903L235.236 228.093L258.428 207.325L269.909 197.013L276.023 191.944L281.445 187.304Z" fill="#384EA1"/>
<path d="M155.929 272.583L155.498 266.575L155.901 260.764L157.434 250.548L159.977 241.277L163.586 232.345L168.03 223.61L173.397 215.446L176.427 211.578L179.687 207.853L183.551 204.182L187.504 200.885L205.202 269.24L213.036 295.773L184.109 284.266L169.761 278.584L162.499 275.369L155.929 272.583Z" fill="#929DCC"/>
<path d="M203.441 345.486L198.023 342.855L193.193 339.599L185.113 333.162L178.357 326.322L172.428 318.729L167.088 310.512L162.703 301.781L160.869 297.223L159.274 292.537L158.029 287.354L157.151 282.282L225.192 301.149L252.086 307.637L227.653 326.929L215.556 336.511L209.14 341.191L203.441 345.486Z" fill="#6E7EBB"/>
<path d="M294.162 336.817L289.279 340.343L284.125 343.056L274.63 347.125L265.406 349.838L255.911 351.466L246.145 352.28L236.379 352.009L231.496 351.466L226.612 350.652L221.458 349.296L216.575 347.668L265.406 296.667L283.853 276.049L289.279 306.704L291.992 321.896L293.077 329.763L294.162 336.817Z" fill="#5063AC"/>
<path d="M332.961 259.225L333.574 265.218L333.346 271.038L332.122 281.295L329.86 290.64L326.522 299.676L322.344 308.541L317.226 316.863L314.314 320.821L311.168 324.643L307.416 328.429L303.565 331.844L283.812 264.054L275.18 237.769L304.441 248.398L318.954 253.645L326.31 256.639L332.961 259.225Z" fill="#5063AC"/>
<circle cx="245.337" cy="266.823" r="30.9264" fill="#6E7EBB"/>
<defs>
<linearGradient id="paint0_linear_2882_2941" x1="86.991" y1="22.9542" x2="362.413" y2="512.894" gradientUnits="userSpaceOnUse">
<stop offset="0.283792" stop-color="#9BA6D0"/>
<stop offset="1" stop-color="#2A419A"/>
</linearGradient>
</defs>
</svg>
