<svg width="85" height="62" viewBox="0 0 85 62" fill="none" xmlns="http://www.w3.org/2000/svg">
<path d="M15.1321 6.40357H74.316C79.5627 6.40357 83.5193 10.6465 83.1534 15.8804L80.8414 48.9425C80.4754 54.1765 75.9254 58.4194 70.6787 58.4194H11.4948C6.24812 58.4194 2.29151 54.1765 2.6575 48.9425L4.96943 15.8804C5.33542 10.6465 9.88541 6.40357 15.1321 6.40357Z" fill="url(#paint0_linear_675_687)" stroke="white"/>
<mask id="path-2-inside-1_675_687" fill="white">
<path fill-rule="evenodd" clip-rule="evenodd" d="M10 0C4.47715 0 0 4.47715 0 10V20.6286V52C0 53.3807 0.279823 54.696 0.785852 55.8924C2.30394 59.4816 5.85788 62 10 62L68 62C73.5229 62 78 57.5229 78 52V20.6286C78 15.1057 73.5229 10.6286 68 10.6286H50.8936V10C50.8936 4.47715 46.4164 0 40.8936 0H10Z"/>
</mask>
<path fill-rule="evenodd" clip-rule="evenodd" d="M10 0C4.47715 0 0 4.47715 0 10V20.6286V52C0 53.3807 0.279823 54.696 0.785852 55.8924C2.30394 59.4816 5.85788 62 10 62L68 62C73.5229 62 78 57.5229 78 52V20.6286C78 15.1057 73.5229 10.6286 68 10.6286H50.8936V10C50.8936 4.47715 46.4164 0 40.8936 0H10Z" fill="url(#paint1_linear_675_687)"/>
<path d="M0.785852 55.8924L-0.135153 56.282L-0.135153 56.282L0.785852 55.8924ZM10 62L10 61H10V62ZM68 62L68 63H68V62ZM50.8936 10.6286H49.8936V11.6286H50.8936V10.6286ZM1 10C1 5.02944 5.02944 1 10 1V-1C3.92487 -1 -1 3.92487 -1 10H1ZM1 20.6286V10H-1V20.6286H1ZM1 52V20.6286H-1V52H1ZM1.70686 55.5029C1.25202 54.4275 1 53.2445 1 52H-1C-1 53.5169 -0.692372 54.9646 -0.135153 56.282L1.70686 55.5029ZM10 61C6.27366 61 3.07397 58.7351 1.70686 55.5029L-0.135153 56.282C1.5339 60.2281 5.4421 63 10 63V61ZM68 61L10 61L10 63L68 63L68 61ZM77 52C77 56.9706 72.9706 61 68 61V63C74.0751 63 79 58.0751 79 52H77ZM77 20.6286V52H79V20.6286H77ZM68 11.6286C72.9706 11.6286 77 15.658 77 20.6286H79C79 14.5535 74.0751 9.62859 68 9.62859V11.6286ZM50.8936 11.6286H68V9.62859H50.8936V11.6286ZM49.8936 10V10.6286H51.8936V10H49.8936ZM40.8936 1C45.8642 1 49.8936 5.02944 49.8936 10H51.8936C51.8936 3.92487 46.9687 -1 40.8936 -1V1ZM10 1H40.8936V-1H10V1Z" fill="white" mask="url(#path-2-inside-1_675_687)"/>
<defs>
<linearGradient id="paint0_linear_675_687" x1="12.2279" y1="13.6003" x2="70.5663" y2="60.8857" gradientUnits="userSpaceOnUse">
<stop offset="0.352276" stop-color="#DADADA"/>
<stop offset="1" stop-color="#EEEEEE"/>
</linearGradient>
<linearGradient id="paint1_linear_675_687" x1="77.7591" y1="62" x2="1.5126" y2="10.7155" gradientUnits="userSpaceOnUse">
<stop offset="0.502668" stop-color="#DADADA"/>
<stop offset="1" stop-color="#EEEEEE"/>
</linearGradient>
</defs>
</svg>
