<svg width="1205" height="305" viewBox="0 0 1205 305" fill="none" xmlns="http://www.w3.org/2000/svg">
<path d="M185.244 28.2068C188.471 9.90887 205.92 -2.30923 224.218 0.917083L376.389 27.7493C391.149 30.5134 398.439 33.5315 400.26 37.6842C400.698 38.4834 400.947 39.4006 400.947 40.3764C400.947 43.473 397.763 45.9464 394.666 45.9464C394.593 45.9464 394.52 45.9439 394.448 45.9418C346.522 48.0058 314.366 64.5217 301.067 102.844C300.442 105.268 298.144 108.034 295.251 107.824C294.609 107.778 294.009 107.688 293.458 107.551L247.901 99.6959V148.991C247.901 160.052 239.004 169.035 227.976 169.174L227.715 169.176H208.387C206.179 173.054 202.59 175.851 198.394 176.701V234.29C198.394 249.092 201.708 260.039 208.338 267.131C214.968 274.069 224.373 277.538 236.553 277.538C248.887 277.538 258.293 273.992 264.768 266.9C271.398 259.653 274.713 248.783 274.713 234.29V140.626H305.241V234.984C305.241 256.569 299.15 273.529 286.97 285.864C274.79 298.198 257.984 304.365 236.553 304.365C215.122 304.365 198.316 298.198 186.136 285.864C173.956 273.529 167.866 256.569 167.866 234.984V140.626H198.394V144.11C202.615 145.607 206.477 148.397 208.717 152.352H222.669C224.562 152.352 226.309 151.725 227.715 150.669V150.673C229.758 149.138 231.079 146.696 231.079 143.944C231.079 143.798 231.075 143.652 231.067 143.508C231.074 143.373 231.079 143.238 231.079 143.102V96.7955L209.675 93.1049C209.523 93.0781 209.371 93.0508 209.22 93.0222L193.514 90.15C183.302 88.8962 176.229 79.3371 178.016 69.2051L185.244 28.2068Z" fill="url(#paint0_linear_2349_5341)"/>
<path fill-rule="evenodd" clip-rule="evenodd" d="M783.259 137.848C799.756 137.848 813.941 141.24 825.812 148.024C837.684 154.808 846.704 164.445 852.871 176.933C859.038 189.422 862.122 204.146 862.122 221.106C862.122 238.066 859.038 252.79 852.871 265.279C846.704 277.767 837.684 287.403 825.812 294.187C813.941 300.971 799.756 304.363 783.259 304.363C766.762 304.363 752.577 300.971 740.705 294.187C728.833 287.403 719.814 277.767 713.647 265.279C707.479 252.79 704.396 238.066 704.396 221.106C704.396 204.146 707.479 189.422 713.647 176.933C719.814 164.445 728.833 154.808 740.705 148.024C752.577 141.24 766.762 137.848 783.259 137.848ZM783.259 166.063C768.766 166.063 757.357 170.843 749.031 180.402C740.705 189.807 736.542 203.375 736.542 221.106C736.542 238.836 740.705 252.481 749.031 262.04C757.357 271.445 768.766 276.148 783.259 276.148C797.752 276.148 809.161 271.445 817.487 262.04C825.812 252.481 829.975 238.836 829.975 221.106C829.975 203.375 825.813 189.807 817.487 180.402C809.161 170.843 797.752 166.063 783.259 166.063Z" fill="url(#paint1_linear_2349_5341)"/>
<path fill-rule="evenodd" clip-rule="evenodd" d="M962.07 137.848C978.567 137.848 992.752 141.24 1004.62 148.024C1016.5 154.808 1025.52 164.445 1031.68 176.933C1037.85 189.422 1040.93 204.146 1040.93 221.106C1040.93 238.066 1037.85 252.79 1031.68 265.279C1025.52 277.767 1016.5 287.403 1004.62 294.187C992.752 300.971 978.567 304.363 962.07 304.363C945.573 304.363 931.388 300.971 919.517 294.187C907.645 287.403 898.625 277.767 892.458 265.279C886.291 252.79 883.207 238.066 883.207 221.106C883.207 204.146 886.291 189.422 892.458 176.933C898.625 164.445 907.645 154.808 919.517 148.024C931.388 141.24 945.573 137.848 962.07 137.848ZM962.07 166.063C947.577 166.063 936.168 170.843 927.842 180.402C919.516 189.807 915.353 203.375 915.353 221.106C915.353 238.836 919.516 252.481 927.842 262.04C936.168 271.445 947.577 276.148 962.07 276.148C976.563 276.148 987.972 271.445 996.298 262.04C1004.62 252.481 1008.79 238.836 1008.79 221.106C1008.79 203.375 1004.62 189.807 996.298 180.402C987.973 170.843 976.563 166.063 962.07 166.063Z" fill="url(#paint2_linear_2349_5341)"/>
<path d="M107.472 246.779V140.626H138V301.59H107.472L31.1528 195.206V301.59H0.625V140.626H31.1528L107.472 246.779Z" fill="url(#paint3_linear_2349_5341)"/>
<path fill-rule="evenodd" clip-rule="evenodd" d="M393.264 140.626C414.078 140.626 429.65 144.789 439.98 153.115C450.31 161.44 455.475 173.543 455.475 189.424C455.475 200.679 452.931 210.238 447.843 218.102C442.755 225.965 435.2 231.824 425.179 235.678L460.794 301.59H427.26L394.42 240.303H365.742V301.59H335.215V140.626H393.264ZM365.742 213.476H393.495C403.671 213.476 411.148 211.703 415.928 208.157C420.862 204.611 423.329 198.598 423.329 190.118C423.329 181.946 420.939 176.164 416.159 172.772C411.38 169.38 403.748 167.684 393.264 167.684H365.742V213.476Z" fill="url(#paint4_linear_2349_5341)"/>
<path d="M510.179 301.59H479.651V140.626H510.179V301.59Z" fill="url(#paint5_linear_2349_5341)"/>
<path d="M647.238 246.779V140.626H677.766V301.59H647.238L570.919 195.206V301.59H540.391V140.626H570.919L647.238 246.779Z" fill="url(#paint6_linear_2349_5341)"/>
<path d="M1174.42 246.779V140.626H1204.94V301.59H1174.42L1098.1 195.206V301.59H1067.57V140.626H1098.1L1174.42 246.779Z" fill="url(#paint7_linear_2349_5341)"/>
<path d="M336.476 87.4664C341.314 79.0874 363.187 58.9589 372.167 62.8236C380.003 68.6673 372.485 97.297 367.647 105.676C362.419 113.537 351.841 116.611 343.465 111.775C335.088 106.938 331.902 96.0034 336.476 87.4664Z" fill="url(#paint8_linear_2349_5341)"/>
<defs>
<linearGradient id="paint0_linear_2349_5341" x1="0.625" y1="152.383" x2="1204.94" y2="152.383" gradientUnits="userSpaceOnUse">
<stop offset="0.350962" stop-color="#F6F8FF"/>
<stop offset="1" stop-color="#D5DEFF"/>
</linearGradient>
<linearGradient id="paint1_linear_2349_5341" x1="0.625" y1="152.383" x2="1204.94" y2="152.383" gradientUnits="userSpaceOnUse">
<stop offset="0.350962" stop-color="#F6F8FF"/>
<stop offset="1" stop-color="#D5DEFF"/>
</linearGradient>
<linearGradient id="paint2_linear_2349_5341" x1="0.625" y1="152.383" x2="1204.94" y2="152.383" gradientUnits="userSpaceOnUse">
<stop offset="0.350962" stop-color="#F6F8FF"/>
<stop offset="1" stop-color="#D5DEFF"/>
</linearGradient>
<linearGradient id="paint3_linear_2349_5341" x1="0.625" y1="152.383" x2="1204.94" y2="152.383" gradientUnits="userSpaceOnUse">
<stop offset="0.350962" stop-color="#F6F8FF"/>
<stop offset="1" stop-color="#D5DEFF"/>
</linearGradient>
<linearGradient id="paint4_linear_2349_5341" x1="0.625" y1="152.383" x2="1204.94" y2="152.383" gradientUnits="userSpaceOnUse">
<stop offset="0.350962" stop-color="#F6F8FF"/>
<stop offset="1" stop-color="#D5DEFF"/>
</linearGradient>
<linearGradient id="paint5_linear_2349_5341" x1="0.625" y1="152.383" x2="1204.94" y2="152.383" gradientUnits="userSpaceOnUse">
<stop offset="0.350962" stop-color="#F6F8FF"/>
<stop offset="1" stop-color="#D5DEFF"/>
</linearGradient>
<linearGradient id="paint6_linear_2349_5341" x1="0.625" y1="152.383" x2="1204.94" y2="152.383" gradientUnits="userSpaceOnUse">
<stop offset="0.350962" stop-color="#F6F8FF"/>
<stop offset="1" stop-color="#D5DEFF"/>
</linearGradient>
<linearGradient id="paint7_linear_2349_5341" x1="0.625" y1="152.383" x2="1204.94" y2="152.383" gradientUnits="userSpaceOnUse">
<stop offset="0.350962" stop-color="#F6F8FF"/>
<stop offset="1" stop-color="#D5DEFF"/>
</linearGradient>
<linearGradient id="paint8_linear_2349_5341" x1="0.625" y1="152.383" x2="1204.94" y2="152.383" gradientUnits="userSpaceOnUse">
<stop offset="0.350962" stop-color="#F6F8FF"/>
<stop offset="1" stop-color="#D5DEFF"/>
</linearGradient>
</defs>
</svg>
