<svg width="1127" height="1224" viewBox="0 0 1127 1224" fill="none" xmlns="http://www.w3.org/2000/svg">
<path d="M19.9094 784.978C-14.1471 659.356 -4.31165 526.339 47.8791 406.707C100.07 287.075 191.678 187.564 308.391 123.72L358.309 209.428C261.137 262.582 184.868 345.432 141.415 445.033C97.9631 544.635 89.7749 655.38 118.129 759.968C146.483 864.556 209.784 957.099 298.142 1023.14C361.551 1070.53 435.302 1102.36 513.134 1116.55V1086.47C484.421 1080.87 456.257 1072.9 428.997 1062.62C370.052 1040.38 316.492 1007.8 271.377 966.721C226.262 925.642 190.475 876.875 166.059 823.203C141.643 769.532 129.076 712.006 129.076 653.912C129.076 595.819 141.643 538.294 166.059 484.622C190.475 430.951 226.262 382.183 271.377 341.104C316.492 300.026 370.052 267.44 428.997 245.209C455.591 235.179 483.046 227.346 511.03 221.769V0L520.479 0.607422V0.00195312C550.247 0.00195312 579.83 2.12659 609.003 6.29785L613.866 6.61035V7.01074C714.253 22.1715 809.632 61.6201 890.876 122.342C997.004 201.662 1073.03 312.815 1107.09 438.437C1141.15 564.058 1131.31 697.076 1079.12 816.708C1026.93 936.34 935.323 1035.85 818.61 1099.69L768.692 1013.99C865.863 960.832 942.133 877.982 985.585 778.381C1029.04 678.779 1037.23 568.034 1008.87 463.446C980.518 358.858 917.218 266.315 828.86 200.276C765.451 152.885 691.699 121.058 613.866 106.862V136.944C642.579 142.546 670.744 150.518 698.003 160.799C756.949 183.03 810.508 215.616 855.623 256.694C900.738 297.773 936.526 346.54 960.942 400.211C985.358 453.882 997.925 511.408 997.925 569.502C997.925 627.596 985.358 685.121 960.942 738.792C936.526 792.464 900.738 841.231 855.623 882.31C810.508 923.388 756.949 955.974 698.003 978.205C671.41 988.235 643.955 996.068 615.97 1001.65V1223.41L606.522 1222.81V1223.41C576.753 1223.41 547.171 1221.29 517.997 1217.12L513.134 1216.8V1216.4C412.748 1201.24 317.368 1161.79 236.124 1101.07C129.997 1021.75 53.966 910.599 19.9094 784.978ZM249.02 653.912C249.02 697.664 258.484 740.988 276.872 781.409C295.261 821.83 322.214 858.558 356.191 889.495C390.168 920.432 430.504 944.974 474.898 961.717C487.07 966.307 499.482 970.285 512.077 973.644V902.667C560.128 902.667 607.709 894.049 652.103 877.306C696.496 860.563 736.833 836.022 770.81 805.085C804.787 774.148 831.74 737.419 850.128 696.998C868.516 656.577 877.981 613.253 877.981 569.502C877.981 525.75 868.516 482.426 850.128 442.005C831.74 401.584 804.787 364.856 770.81 333.919C736.833 302.982 696.496 278.44 652.103 261.697C639.931 257.107 627.518 253.129 614.923 249.771V320.748C566.872 320.748 519.291 329.365 474.898 346.108C430.505 362.851 390.168 387.392 356.191 418.329C322.214 449.266 295.262 485.995 276.873 526.416C258.485 566.837 249.02 610.161 249.02 653.912Z" fill="url(#paint0_linear_2441_2734)"/>
<path d="M454.008 446.627L465.258 438.501L477.134 432.251L499.01 422.876L520.261 416.625L542.138 412.875L564.639 411L587.14 411.625L598.391 412.875L609.641 414.75L621.517 417.875L632.767 421.626L520.261 539.132L477.759 586.635L465.258 516.006L459.008 481.004L456.508 462.878L454.008 446.627Z" fill="#0049E7"/>
<path d="M648.465 431.555L661.3 436.833L672.871 443.631L692.369 457.281L708.881 472.046L723.598 488.661L737.051 506.795L748.379 526.246L753.247 536.466L757.583 547.016L761.186 558.755L763.929 570.293L604.771 536.615L542.001 525.531L595.435 477.682L621.886 453.923L635.973 442.245L648.465 431.555Z" fill="#0033A0"/>
<path d="M359.302 628.03L358.308 614.187L359.237 600.799L362.768 577.262L368.628 555.9L376.943 535.321L387.182 515.197L399.547 496.387L406.527 487.476L414.039 478.893L422.943 470.436L432.049 462.839L472.825 620.328L490.875 681.46L424.228 654.948L391.171 641.856L374.439 634.45L359.302 628.03Z" fill="#014AE7"/>
<path d="M468.764 796L456.281 789.937L445.153 782.436L426.538 767.605L410.971 751.846L397.311 734.352L385.007 715.42L374.905 695.304L370.68 684.802L367.005 674.005L364.135 662.065L362.112 650.379L518.879 693.848L580.843 708.796L524.549 753.245L496.677 775.321L481.895 786.105L468.764 796Z" fill="#0149E7"/>
<path d="M677.766 776.022L666.515 784.147L654.639 790.397L632.763 799.773L611.512 806.023L589.636 809.773L567.135 811.648L544.633 811.023L533.383 809.773L522.132 807.898L510.257 804.773L499.006 801.023L611.512 683.516L654.014 636.014L666.515 706.643L672.765 741.645L675.265 759.771L677.766 776.022Z" fill="#0033A0"/>
<path d="M767.146 597.261L768.558 611.067L768.033 624.477L765.214 648.11L760.002 669.639L752.311 690.459L742.685 710.883L730.893 730.058L724.185 739.176L716.936 747.982L708.291 756.704L699.418 764.572L653.908 608.386L634.02 547.826L701.437 572.315L734.875 584.403L751.822 591.3L767.146 597.261Z" fill="#0033A0"/>
<circle cx="565.262" cy="614.762" r="71.2539" fill="#012E93"/>
<defs>
<linearGradient id="paint0_linear_2441_2734" x1="200.425" y1="52.8861" x2="834.993" y2="1181.7" gradientUnits="userSpaceOnUse">
<stop offset="0.283792" stop-color="#0049E7"/>
<stop offset="1" stop-color="#002981"/>
</linearGradient>
</defs>
</svg>
