<svg width="28" height="28" viewBox="0 0 28 28" fill="none" xmlns="http://www.w3.org/2000/svg">
<path d="M22.8238 7.94911L6.53717 0.779772C6.37595 0.708532 6.2022 0.669965 6.02597 0.666303C5.84975 0.662642 5.67455 0.693957 5.5105 0.758439C5.34659 0.823216 5.19715 0.919849 5.07081 1.04275C4.94448 1.16565 4.84377 1.31237 4.7745 1.47444L0.774504 10.8078C0.635214 11.1328 0.63071 11.4998 0.761981 11.8281C0.893252 12.1564 1.14955 12.4191 1.4745 12.5584L10.7505 16.5331L9.09717 20.6664H3.33317V16.6664H0.666504V27.3331H3.33317V23.3331H9.09717C10.1945 23.3331 11.1665 22.6744 11.5718 21.6558L13.2012 17.5838L17.7598 19.5371C18.0834 19.6761 18.4487 19.6815 18.7762 19.5521C19.1037 19.4227 19.3667 19.1691 19.5078 18.8464L23.5078 9.70377C23.6494 9.38033 23.6568 9.01396 23.5286 8.68503C23.4004 8.35609 23.1469 8.09143 22.8238 7.94911ZM24.5732 19.8291L22.0958 18.8398L24.7598 12.1731L27.2372 13.1611L24.5732 19.8291Z" fill="white"/>
</svg>
