<svg width="22" height="22" viewBox="0 0 22 22" fill="none" xmlns="http://www.w3.org/2000/svg">
<path fill-rule="evenodd" clip-rule="evenodd" d="M0.708496 20.5002C0.708496 20.2902 0.791904 20.0888 0.94037 19.9404C1.08884 19.7919 1.2902 19.7085 1.50016 19.7085H20.5002C20.7101 19.7085 20.9115 19.7919 21.06 19.9404C21.2084 20.0888 21.2918 20.2902 21.2918 20.5002C21.2918 20.7101 21.2084 20.9115 21.06 21.06C20.9115 21.2084 20.7101 21.2918 20.5002 21.2918H1.50016C1.2902 21.2918 1.08884 21.2084 0.94037 21.06C0.791904 20.9115 0.708496 20.7101 0.708496 20.5002Z" fill="white"/>
<path d="M6.24984 10.2085H3.08317C2.64595 10.2085 2.2915 10.5629 2.2915 11.0002V20.5002C2.2915 20.9374 2.64595 21.2918 3.08317 21.2918H6.24984C6.68706 21.2918 7.0415 20.9374 7.0415 20.5002V11.0002C7.0415 10.5629 6.68706 10.2085 6.24984 10.2085Z" fill="white"/>
<path d="M12.5833 0.708496H9.41667C8.97944 0.708496 8.625 1.06294 8.625 1.50016V20.5002C8.625 20.9374 8.97944 21.2918 9.41667 21.2918H12.5833C13.0206 21.2918 13.375 20.9374 13.375 20.5002V1.50016C13.375 1.06294 13.0206 0.708496 12.5833 0.708496Z" fill="white"/>
<path d="M18.9168 5.4585H15.7502C15.3129 5.4585 14.9585 5.81294 14.9585 6.25016V20.5002C14.9585 20.9374 15.3129 21.2918 15.7502 21.2918H18.9168C19.3541 21.2918 19.7085 20.9374 19.7085 20.5002V6.25016C19.7085 5.81294 19.3541 5.4585 18.9168 5.4585Z" fill="white"/>
</svg>
